<svg width="624" height="142" viewBox="0 0 624 142" fill="none" xmlns="http://www.w3.org/2000/svg">
<g filter="url(#filter0_g_3_3657)">
<rect x="587.977" y="49.9482" width="34.0234" height="78.7911" fill="#A11D1F"/>
</g>
<g filter="url(#filter1_g_3_3657)">
<path d="M601.721 68.2771C601.721 68.6032 601.64 68.9642 601.477 69.3601C601.314 69.7327 601.104 70.0238 600.848 70.2334C600.639 70.4197 600.534 70.6643 600.534 70.967C600.534 71.2698 600.639 71.526 600.848 71.7356C601.104 71.9219 601.314 72.213 601.477 72.6089C601.64 73.0049 601.721 73.3658 601.721 73.6919V84.9406C601.721 85.2667 601.593 85.5462 601.337 85.7791C601.104 86.0352 600.813 86.1633 600.464 86.1633H597.739C597.39 86.1633 597.099 86.2681 596.866 86.4777C596.633 86.6874 596.516 86.9319 596.516 87.2114C596.516 87.5141 596.4 87.7703 596.167 87.9799C595.934 88.1895 595.643 88.2943 595.294 88.2943H594.455C594.129 88.2943 593.85 88.1662 593.617 87.91C593.384 87.6771 593.267 87.3977 593.267 87.0716V57.4126C593.267 57.0866 593.384 56.8071 593.617 56.5742C593.85 56.3413 594.129 56.2249 594.455 56.2249H600.464C600.813 56.2249 601.104 56.3413 601.337 56.5742C601.593 56.8071 601.721 57.0866 601.721 57.4126V68.2771ZM608.708 65.168C608.382 65.168 608.103 65.2961 607.87 65.5523C607.637 65.7852 607.521 66.0646 607.521 66.3907V68.347C607.521 68.6963 607.637 68.9874 607.87 69.2203C608.103 69.4532 608.382 69.5697 608.708 69.5697H615.381C615.707 69.5697 615.986 69.6978 616.219 69.954C616.452 70.1868 616.568 70.478 616.568 70.8273V87.0716C616.568 87.3977 616.452 87.6771 616.219 87.91C615.986 88.1662 615.707 88.2943 615.381 88.2943H610.071C609.721 88.2943 609.419 88.1662 609.162 87.91C608.93 87.6771 608.813 87.3977 608.813 87.0716V86.2681C608.813 85.9188 608.93 85.6277 609.162 85.3948C609.419 85.1619 609.721 85.0455 610.071 85.0455H612.097C612.446 85.0455 612.737 84.929 612.97 84.6961C613.203 84.4632 613.32 84.1721 613.32 83.8228V74.0412C613.32 73.7152 613.203 73.4357 612.97 73.2028C612.737 72.9466 612.446 72.8185 612.097 72.8185H608.708C608.382 72.8185 608.103 72.9466 607.87 73.2028C607.637 73.4357 607.521 73.7152 607.521 74.0412V87.0716C607.521 87.3977 607.392 87.6771 607.136 87.91C606.903 88.1662 606.624 88.2943 606.298 88.2943H603.783C603.457 88.2943 603.189 88.1662 602.979 87.91C602.769 87.6771 602.665 87.3977 602.665 87.0716V86.2681C602.665 85.9188 602.735 85.6277 602.874 85.3948C603.037 85.1619 603.235 85.0455 603.468 85.0455C603.701 85.0455 603.887 84.929 604.027 84.6961C604.19 84.4632 604.272 84.1721 604.272 83.8228V66.3907C604.272 66.0646 604.19 65.7852 604.027 65.5523C603.887 65.2961 603.701 65.168 603.468 65.168C603.235 65.168 603.037 65.0515 602.874 64.8186C602.735 64.5858 602.665 64.3063 602.665 63.9802V63.1768C602.665 62.8274 602.781 62.5363 603.014 62.3034C603.247 62.0705 603.538 61.9541 603.887 61.9541H615.381C615.707 61.9541 615.986 62.0705 616.219 62.3034C616.452 62.5363 616.568 62.8274 616.568 63.1768V63.9802C616.568 64.3063 616.452 64.5858 616.219 64.8186C615.986 65.0515 615.707 65.168 615.381 65.168H608.708ZM613.32 56.714C613.32 56.5742 613.436 56.4578 613.669 56.3646C613.925 56.2715 614.228 56.2249 614.577 56.2249H615.381C615.707 56.2249 615.986 56.3064 616.219 56.4694C616.452 56.6324 616.568 56.8188 616.568 57.0284V59.1943C616.568 59.5436 616.452 59.8347 616.219 60.0676C615.986 60.3005 615.707 60.417 615.381 60.417H603.887C603.538 60.417 603.247 60.3005 603.014 60.0676C602.781 59.8347 602.665 59.5436 602.665 59.1943V58.3908C602.665 58.0414 602.781 57.7503 603.014 57.5174C603.247 57.2845 603.538 57.1681 603.887 57.1681H612.097C612.446 57.1681 612.737 57.1215 612.97 57.0284C613.203 56.9352 613.32 56.8304 613.32 56.714ZM598.473 73.8666C598.473 73.5405 598.368 73.261 598.158 73.0281C597.949 72.7953 597.716 72.6788 597.46 72.6788C597.203 72.6788 596.982 72.7953 596.796 73.0281C596.609 73.261 596.516 73.5405 596.516 73.8666V81.7267C596.516 82.0528 596.609 82.3322 596.796 82.5651C596.982 82.8213 597.203 82.9494 597.46 82.9494C597.716 82.9494 597.949 82.8213 598.158 82.5651C598.368 82.3322 598.473 82.0528 598.473 81.7267V73.8666ZM598.473 60.6615C598.473 60.3354 598.368 60.056 598.158 59.8231C597.949 59.5669 597.716 59.4388 597.46 59.4388C597.203 59.4388 596.982 59.5669 596.796 59.8231C596.609 60.056 596.516 60.3354 596.516 60.6615V68.2073C596.516 68.5566 596.609 68.8477 596.796 69.0806C596.982 69.3135 597.203 69.4299 597.46 69.4299C597.716 69.4299 597.949 69.3135 598.158 69.0806C598.368 68.8477 598.473 68.5566 598.473 68.2073V60.6615Z" fill="white"/>
</g>
<g filter="url(#filter2_g_3_3657)">
<path d="M613.564 94.6305C613.564 94.3065 613.68 94.0288 613.912 93.7974C614.143 93.5428 614.432 93.4155 614.779 93.4155H615.578C615.902 93.4155 616.191 93.5428 616.446 93.7974C616.7 94.0288 616.828 94.3065 616.828 94.6305V95.5678C616.828 95.8918 616.735 96.2505 616.55 96.6439C616.365 97.0374 616.168 97.3614 615.96 97.6159L615.057 98.4491C614.826 98.7036 614.594 98.9119 614.363 99.0739C614.155 99.2359 614.004 99.3169 613.912 99.3169C613.865 99.3169 613.807 99.4442 613.738 99.6988C613.692 99.9533 613.669 100.243 613.669 100.567V118.965C613.669 119.312 613.784 119.602 614.016 119.833C614.247 120.064 614.525 120.18 614.849 120.18H615.647C615.971 120.18 616.249 120.296 616.48 120.527C616.735 120.782 616.862 121.071 616.862 121.395V122.228C616.862 122.552 616.735 122.83 616.48 123.061C616.249 123.293 615.971 123.408 615.647 123.408H614.224C613.877 123.408 613.495 123.327 613.078 123.165C612.685 123.003 612.361 122.807 612.106 122.575L611.273 121.707C611.042 121.453 610.834 121.129 610.648 120.736C610.463 120.342 610.371 119.972 610.371 119.625V97.3382C610.371 96.9911 610.498 96.7018 610.753 96.4704C611.007 96.2389 611.296 96.1232 611.62 96.1232H612.315C612.662 96.1232 612.951 96.0075 613.183 95.7761C613.437 95.5215 613.564 95.2322 613.564 94.9082V94.6305ZM595.582 120.18C595.93 120.18 596.219 120.064 596.45 119.833C596.682 119.602 596.797 119.312 596.797 118.965V99.1433C596.797 98.7962 596.682 98.5069 596.45 98.2755C596.219 98.0441 595.93 97.9284 595.582 97.9284H594.541C594.194 97.9284 593.905 97.8126 593.673 97.5812C593.442 97.3498 593.326 97.0721 593.326 96.7481V95.9149C593.326 95.5678 593.442 95.2785 593.673 95.0471C593.905 94.8157 594.194 94.6999 594.541 94.6999H598.811C599.135 94.6999 599.413 94.8157 599.644 95.0471C599.899 95.2785 600.026 95.5678 600.026 95.9149V119.625C600.026 119.972 599.933 120.342 599.748 120.736C599.586 121.129 599.378 121.453 599.123 121.707L598.29 122.575C598.036 122.807 597.712 123.003 597.318 123.165C596.925 123.327 596.554 123.408 596.207 123.408H594.437C594.113 123.408 593.835 123.293 593.604 123.061C593.372 122.83 593.257 122.552 593.257 122.228V121.395C593.257 121.071 593.372 120.782 593.604 120.527C593.835 120.296 594.113 120.18 594.437 120.18H595.582ZM605.302 123.2C605.048 123.455 604.724 123.663 604.33 123.825C603.937 123.987 603.578 124.068 603.254 124.068H602.942C602.595 124.068 602.294 123.941 602.039 123.686C601.808 123.455 601.692 123.177 601.692 122.853V122.055C601.692 121.707 601.796 121.418 602.005 121.187C602.213 120.955 602.456 120.84 602.734 120.84C603.011 120.84 603.254 120.724 603.463 120.493C603.671 120.261 603.775 119.972 603.775 119.625V93.3808C603.775 93.0568 603.891 92.7791 604.122 92.5477C604.377 92.3162 604.678 92.2005 605.025 92.2005H605.788C606.112 92.2005 606.39 92.3162 606.622 92.5477C606.876 92.7791 607.003 93.0568 607.003 93.3808V120.284C607.003 120.608 606.911 120.967 606.726 121.36C606.564 121.777 606.367 122.089 606.136 122.298L605.302 123.2Z" fill="white"/>
</g>
<path d="M477.742 110.416C476.334 110.416 475.207 109.993 474.362 109.289C473.517 108.444 472.531 107.458 471.404 106.05C470.137 105.064 469.573 103.655 469.573 101.543C469.573 99.5708 470.137 96.613 471.404 92.9511C471.686 92.2468 472.108 90.5567 472.813 87.7398C474.362 81.4017 475.77 76.4721 477.32 72.951C479.292 66.1904 480.418 61.8242 480.7 59.7115C481.404 55.6269 482.249 52.2466 483.376 49.7114C484.644 46.3311 485.489 42.6691 486.052 38.3029L486.897 32.5282C484.08 33.2325 480.7 33.7959 476.475 34.3592C471.968 35.3452 468.306 35.9085 465.489 35.9085C464.503 35.9085 463.376 35.9085 462.249 35.7677C461.123 35.6269 459.855 35.486 458.728 35.486C457.32 35.486 456.052 35.6269 455.066 36.0494C454.08 36.4719 452.672 36.7536 450.841 37.1762C449.151 37.5987 447.179 37.7395 445.207 37.7395C439.855 37.7395 436.334 35.7677 434.362 31.6832C433.658 30.2747 433.376 28.8663 433.376 27.5986C433.376 23.7958 436.052 21.9648 441.545 21.9648C444.221 21.9648 446.897 22.2465 449.573 22.669C452.249 23.2324 454.784 23.5141 457.461 23.5141C459.292 23.5141 461.123 23.2324 462.954 22.8099C464.785 22.3874 468.587 22.2465 474.362 22.2465C479.01 22.2465 482.954 21.824 486.193 20.9789C486.616 20.2747 487.461 19.7113 488.728 19.1479C490.982 18.162 492.813 17.7394 494.221 17.7394C497.742 17.7394 500.7 19.0071 502.954 21.5423C505.207 24.0775 506.616 26.8944 507.038 29.993C507.038 32.6691 506.334 35.2043 504.926 37.4578C503.517 40.8381 502.531 44.0776 502.249 47.4579C501.264 53.0917 499.433 58.5847 496.616 63.5143C494.221 68.4439 492.249 74.3594 490.841 81.12C490.278 83.9369 489.573 86.613 488.447 89.1482C487.742 90.6975 486.475 94.9229 484.644 101.683C482.954 107.458 480.559 110.416 477.742 110.416ZM533.095 133.233C531.123 133.233 529.433 130.416 527.883 124.641C527.602 123.515 527.461 122.388 527.461 120.979C527.461 119.43 527.602 117.177 528.024 114.641L527.32 21.824C526.757 18.8662 525.489 16.4718 523.376 14.6408C522.813 14.0775 522.109 13.3732 521.404 12.5282C520.841 11.8239 520.559 10.5563 520.559 9.00701C520.559 7.7394 520.7 6.33095 520.982 4.78164C521.686 2.38726 523.799 1.2605 527.179 1.2605C529.151 1.2605 532.954 1.96473 538.447 3.23234C542.25 4.07741 544.081 4.92249 544.081 5.90841C544.081 6.61264 543.94 7.45771 543.799 8.30278C543.376 9.85209 543.236 24.5 543.236 52.5283C545.63 52.5283 549.01 52.1058 553.095 51.2607C557.32 50.5565 560.278 50.134 562.25 50.134C562.954 50.134 563.517 50.134 563.94 50.2748C567.743 51.1199 569.574 53.0917 569.574 56.3312C569.574 59.0072 568.447 60.9791 566.334 61.965C565.067 62.3875 563.095 62.6692 560.56 62.6692L556.053 62.5284C553.658 62.3875 551.405 62.2467 549.433 62.2467C547.32 62.2467 545.489 62.3875 543.799 62.5284H543.236C543.236 93.6553 543.236 110.416 543.376 112.951L543.236 116.472L543.095 116.754C543.095 119.148 541.123 122.951 537.32 128.303C535.067 131.543 533.658 133.233 533.095 133.233Z" fill="black"/>
<path d="M306.474 79.289C304.08 79.289 302.671 77.0355 301.967 72.5284C301.545 68.7256 301.263 61.4016 301.263 50.2748C301.263 38.7255 300.7 30.4156 299.291 25.2043C298.728 23.0916 298.305 20.9789 297.883 18.8662C297.742 17.5986 297.46 16.4718 297.178 15.2042C296.897 13.9366 296.615 12.8098 296.615 11.6831C296.615 9.85209 297.601 8.86617 299.573 8.58448C301.545 8.30278 302.953 8.16194 303.798 8.16194C305.066 8.16194 306.333 8.30278 307.601 8.58448L309.009 8.72532C312.671 8.86617 315.348 10.1338 317.038 12.8098C317.601 13.9366 317.883 15.2042 317.883 16.4718C317.883 17.3169 317.742 18.0211 317.601 18.4437C319.01 18.5845 322.39 18.5845 327.742 18.5845C333.798 18.5845 338.305 18.3028 341.263 17.5986C343.798 17.0352 346.615 15.7676 350.136 13.9366C352.953 12.2465 355.911 11.4014 358.728 11.4014C362.39 11.4014 365.77 12.5282 368.587 14.9225C371.404 17.1761 372.813 19.5704 372.813 22.1057C372.813 24.7817 372.531 26.4719 371.827 27.1761C370.418 29.0071 369.714 36.0494 369.432 48.1621C369.432 51.4016 369.432 53.5143 369.714 54.7819C369.855 55.9086 369.996 57.0354 369.996 58.1622C369.996 60.4157 369.573 62.3876 369.01 64.2185C367.32 67.7397 365.489 69.8524 363.517 70.4158C363.376 70.5566 363.094 70.5566 362.531 70.5566C360.559 70.5566 358.869 70.1341 357.46 69.1481H356.756C354.221 68.7256 351.545 68.4439 348.587 68.4439C345.77 68.4439 343.235 68.3031 340.981 68.0214C337.46 67.5988 333.798 67.3171 330.136 67.3171C326.193 67.3171 322.672 67.8805 319.714 69.1481C318.446 69.5707 317.319 69.8524 315.911 69.8524C315.629 71.4017 314.643 73.2327 313.094 75.0637C310.559 77.8806 308.305 79.289 306.474 79.289ZM328.305 57.8805C331.404 57.8805 334.784 57.5988 338.587 56.8946C342.39 56.1903 346.193 55.7678 349.996 55.627C351.404 55.627 352.813 55.4861 354.08 55.3453C354.221 50.134 354.221 42.2466 354.221 31.9649C354.221 29.993 353.094 28.8663 350.7 28.4437C348.165 28.162 345.066 28.0212 341.122 28.0212L337.601 28.162C328.024 28.162 320.981 28.7254 316.615 29.7113L316.756 40.6973L316.615 54.0776L316.474 55.7678C320.559 57.1763 324.503 57.8805 328.305 57.8805ZM410.137 89.2891C408.587 89.2891 407.32 88.5849 406.334 87.0355C403.94 83.6553 402.813 79.289 402.813 74.0777C402.813 72.6693 402.954 71.2608 403.094 69.9932L402.954 60.134L381.686 62.1059C378.165 62.1059 376.052 61.1199 375.348 59.1481C375.066 58.303 374.925 56.8946 374.925 54.7819C374.925 51.1199 377.601 49.4297 382.813 49.4297L387.601 49.5706L402.813 49.148L402.672 36.3311L388.024 37.317C385.63 37.7395 383.376 37.8804 381.263 37.8804C377.601 37.7395 375.489 36.7536 374.784 34.7818C374.644 34.0776 374.503 32.3874 374.503 29.5705C374.503 26.4719 377.179 25.0634 382.672 25.0634C384.784 25.0634 386.897 25.0634 389.01 25.3451L402.531 25.2043C402.249 20.6972 400.982 17.3169 398.587 15.2042C397.601 14.3592 396.756 13.3732 396.052 12.3873C395.63 11.5422 395.348 10.2746 395.348 8.44363C395.348 7.45771 395.489 6.47179 395.77 5.48587C396.475 3.79572 397.32 2.52811 398.447 2.10557C399.573 1.54219 400.982 1.2605 402.531 1.2605C404.925 1.2605 407.601 1.68304 410.559 2.66896L414.503 3.51403C417.461 4.07741 419.151 4.92249 419.292 6.04925C419.292 7.45771 419.151 8.72532 418.869 10.1338C418.587 11.5422 418.447 12.8098 418.306 14.0775L418.587 31.5423L418.447 46.0494C418.306 49.9931 418.306 54.3593 418.306 59.0073L418.447 66.1904L418.306 70.1341C418.306 72.8101 418.306 74.6411 418.447 75.7679C418.447 77.8806 418.024 79.8524 417.179 81.6834C414.08 86.7539 411.686 89.2891 410.137 89.2891Z" fill="black"/>
<path d="M262.102 73.0918C259.004 72.2467 255.623 70.2749 252.102 67.0354L232.806 56.8946C229.004 53.6551 224.778 50.6973 220.271 48.0213C219.144 47.317 218.018 46.3311 217.032 44.9227C216.187 43.7959 215.764 42.9508 215.764 42.1058C215.764 39.9931 217.313 38.4438 220.412 37.4578C224.637 37.7395 228.299 38.7255 231.68 40.5565C236.609 43.5142 240.13 45.3452 242.525 46.1903C247.032 48.0213 250.271 49.5706 252.243 50.6973C255.483 52.81 258.863 54.3593 262.102 55.2044C265.624 55.9086 267.455 57.5988 267.455 60.5566C267.455 61.4016 267.314 62.2467 267.173 63.2326C265.905 68.1622 264.356 71.4017 262.102 73.0918ZM157.454 73.2327H156.609C155.764 71.6834 155.2 70.5566 155.2 69.9932C155.2 69.0073 156.609 67.7397 159.144 66.3312C160.834 65.3453 163.229 63.5143 166.186 60.8382C169.003 58.4439 172.102 56.472 175.482 54.641C178.722 52.6692 183.088 48.0213 188.722 40.979C189.426 39.9931 190.412 38.7255 192.102 36.8945C198.581 29.1479 205.342 19.2887 212.384 7.4577C213.088 6.19009 213.933 5.62671 215.06 5.62671C219.567 5.62671 223.652 7.7394 227.313 12.1056C227.595 12.5281 227.736 12.8098 227.736 13.2324C227.736 15.0634 226.468 18.162 223.792 22.2465C219.567 28.5846 214.497 34.5001 208.722 39.7114C207.736 40.6973 206.75 41.9649 205.905 43.2325C202.665 47.4579 197.454 52.3875 190.13 58.1622C182.806 63.9368 176.186 67.7397 170.271 69.4298C168.299 69.8524 166.046 70.5566 163.933 71.4017C160.412 72.6693 158.299 73.2327 157.454 73.2327ZM212.102 131.965C209.144 131.965 207.173 131.261 206.468 129.853C205.482 127.881 204.919 125.909 204.919 123.937C204.919 123.092 205.06 122.106 205.201 121.12C205.201 120.134 205.342 119.008 205.342 117.881L204.919 91.1201C181.961 91.2609 169.144 91.5426 166.468 91.6835C162.665 91.6835 159.567 92.2468 157.313 93.2328C153.229 94.3595 150.271 95.0637 148.44 95.0637C146.609 95.0637 144.919 94.3595 143.51 93.0919C140.834 90.1341 139.426 87.8806 139.426 86.1905C139.426 84.6412 140.412 83.3736 142.524 82.2468L144.355 81.12C146.891 79.289 149.285 78.444 151.398 78.444C153.088 78.444 155.623 78.8665 159.285 79.5707C160.975 79.9933 162.524 80.1341 163.651 80.2749C164.355 80.5566 166.75 80.8383 170.693 80.8383C172.947 80.6975 204.778 80.4158 266.187 79.8524C267.736 79.7116 269.708 79.289 271.962 78.5848C274.074 77.8806 276.046 77.5989 277.736 77.5989C279.145 77.5989 280.412 77.8806 281.398 78.5848C283.088 79.9933 283.933 81.4017 283.933 82.951C283.933 83.9369 283.511 84.782 282.948 85.7679C280.553 89.9933 276.891 92.2468 272.243 92.3877C270.412 92.3877 268.581 92.106 266.469 91.5426C264.356 90.9792 262.525 90.6975 261.257 90.6975L220.835 90.9792C220.975 109.712 220.975 120.275 221.116 122.529C221.116 126.754 220.13 129.43 218.299 130.416C216.328 131.543 214.215 131.965 212.102 131.965Z" fill="black"/>
<path d="M569.571 56.3326C569.571 53.0932 567.74 51.1215 563.937 50.2764C563.726 50.2062 563.48 50.1702 563.199 50.1527L562.247 50.1356C560.275 50.1358 557.316 50.5583 553.092 51.2623C549.008 52.1072 545.627 52.5299 543.233 52.5299C543.233 24.5016 543.374 9.85048 543.796 8.30118C543.937 7.45661 544.078 6.61067 544.078 5.90686C544.076 4.92166 542.245 4.07546 538.444 3.23086C532.952 1.96342 529.149 1.25907 527.177 1.25907C523.798 1.2592 521.685 2.38684 520.98 4.78013C520.698 6.32872 520.558 7.73823 520.557 9.00539C520.557 10.5537 520.84 11.822 521.403 12.5264C522.106 13.3709 522.811 14.0759 523.374 14.6391C525.487 16.4696 526.754 18.8652 527.318 21.822L528.022 114.641C527.6 117.176 527.459 119.43 527.459 120.979C527.459 122.387 527.6 123.515 527.881 124.641C529.43 130.415 531.121 133.232 533.092 133.232C533.656 133.232 535.064 131.542 537.318 128.303C541.121 122.951 543.092 119.148 543.092 116.754L543.233 116.472L543.374 112.951C543.303 111.683 543.268 106.859 543.25 98.4615L543.233 62.5297H543.796L546.455 62.3334C547.388 62.2806 548.374 62.248 549.43 62.248L550.962 62.2694C552.539 62.3156 554.255 62.4241 556.05 62.5297L560.557 62.6705C563.091 62.6705 565.064 62.3885 566.331 61.9663C568.18 61.1037 569.275 59.485 569.519 57.3015L569.571 56.3326ZM488.445 89.1489L489.461 89.6098C488.804 91.0559 487.564 95.1744 485.723 101.974L485.714 102C484.849 104.955 483.776 107.289 482.487 108.909C481.187 110.544 479.594 111.534 477.741 111.534C476.098 111.534 474.71 111.035 473.644 110.147L473.606 110.117L473.572 110.079C472.736 109.243 471.727 108.24 470.58 106.814C469.058 105.557 468.454 103.807 468.454 101.543C468.454 99.3959 469.058 96.3042 470.345 92.5846L470.362 92.5334C470.607 91.92 471.01 90.3409 471.728 87.4673C473.263 81.1862 474.676 76.2045 476.252 72.5935C478.223 65.834 479.322 61.5707 479.589 59.5635L479.594 59.5208H479.598C480.303 55.4331 481.157 51.9602 482.329 49.3033C483.557 46.026 484.387 42.4565 484.941 38.1597L484.946 38.1427L485.552 33.9771C483.044 34.5219 480.144 34.9903 476.709 35.4496C472.186 36.4389 468.429 37.0286 465.488 37.0287C464.756 37.0287 463.899 37.028 463.009 36.9647L462.108 36.8793C460.982 36.7386 459.777 36.6063 458.728 36.6062C457.366 36.6062 456.28 36.744 455.505 37.0757C454.4 37.5496 452.84 37.858 451.088 38.2622C449.276 38.7122 447.211 38.8596 445.207 38.8597C442.398 38.8597 439.975 38.3421 437.968 37.2208C435.953 36.0944 434.433 34.3992 433.359 32.1803C432.575 30.6114 432.258 29.0329 432.258 27.6008C432.258 25.3998 433.052 23.6102 434.763 22.4323C436.394 21.3096 438.712 20.8447 441.545 20.8447C443.609 20.8448 445.665 21.0094 447.708 21.2715L449.748 21.566L449.803 21.5745C452.409 22.123 454.868 22.3939 457.46 22.3939V23.5121L455.476 23.4609C453.508 23.3554 451.58 23.0896 449.573 22.6671C447.566 22.3502 445.558 22.1131 443.551 22.0141L441.545 21.9629C436.052 21.9629 433.376 23.798 433.376 27.6008L433.427 28.5739C433.54 29.5708 433.834 30.6289 434.362 31.6853C436.211 35.5135 439.421 37.4848 444.225 37.7159L445.207 37.7415C447.178 37.7414 449.151 37.6005 450.841 37.1781C452.213 36.8613 453.349 36.6231 454.246 36.3459L455.066 36.0514C456.052 35.6289 457.319 35.488 458.728 35.488L459.594 35.5093C460.479 35.5556 461.404 35.6641 462.249 35.7697C462.812 35.8401 463.376 35.8716 463.922 35.8892L465.488 35.9105C468.305 35.9104 471.967 35.3471 476.474 34.3613C480.699 33.7979 484.079 33.2345 486.896 32.5303L486.051 38.3048C485.488 42.6703 484.643 46.3332 483.375 49.7131C482.249 52.2482 481.403 55.6289 480.699 59.7129C480.417 61.826 479.29 66.1927 477.319 72.952C475.77 76.4731 474.361 81.4027 472.812 87.7404C472.108 90.5572 471.685 92.2474 471.404 92.9516C470.136 96.6135 469.573 99.5712 469.573 101.543L469.598 102.303C469.723 104.001 470.294 105.187 471.404 106.05C472.53 107.458 473.516 108.444 474.361 109.289C475.1 109.905 476.055 110.304 477.225 110.395L477.741 110.416C480.382 110.416 482.652 107.816 484.318 102.734L484.643 101.684C486.474 94.9236 487.741 90.6984 488.445 89.1489ZM507.037 29.9951C506.667 27.2838 505.544 24.7849 503.759 22.5049L502.952 21.5403C500.98 19.3226 498.469 18.0745 495.513 17.7974L494.22 17.7376C492.812 17.7376 490.98 18.1604 488.727 19.146C487.461 19.709 486.615 20.2735 486.192 20.977C482.953 21.822 479.009 22.2445 474.361 22.2446L470.401 22.2744C466.81 22.3338 464.327 22.4912 462.953 22.8079L461.579 23.0981C460.206 23.3556 458.833 23.512 457.46 23.5121V22.3939C459.178 22.3938 460.921 22.1305 462.701 21.7196C464.684 21.2622 468.633 21.1264 474.361 21.1264C478.764 21.1263 482.48 20.7376 485.53 19.9868C486.176 19.1923 487.16 18.6197 488.27 18.126L488.279 18.1217C490.614 17.1001 492.604 16.6194 494.22 16.6194C497.801 16.6195 500.899 17.8423 503.315 20.2941L503.789 20.7977C505.868 23.1371 507.294 25.7404 507.924 28.5995L508.146 29.8415L508.155 29.9183V29.9951L508.121 31.0664C507.957 33.5088 507.225 35.8305 505.935 37.9335C504.563 41.2358 503.629 44.3423 503.362 47.5492L503.358 47.6004L503.349 47.6516C502.348 53.374 500.487 58.9744 497.613 64.0192C495.271 68.846 493.324 74.6603 491.932 81.3343L491.937 81.3385C491.366 84.1933 490.64 86.9594 489.465 89.6013V89.6098L488.445 89.1489C489.572 86.6138 490.276 83.9376 490.84 81.1209C492.072 75.2061 493.735 69.9373 495.735 65.4106L496.614 63.5156C499.431 58.5864 501.262 53.0929 502.248 47.4596C502.494 44.5016 503.28 41.6498 504.416 38.7188L504.924 37.4598C506.156 35.4879 506.848 33.2985 507.002 30.9896L507.037 29.9951ZM545.196 5.90686C545.196 6.72239 545.038 7.6687 544.902 8.4847L544.893 8.54445L544.876 8.59567C544.876 8.59567 544.875 8.60374 544.872 8.61701C544.869 8.63095 544.863 8.65173 544.859 8.67676C544.85 8.72789 544.844 8.79575 544.834 8.88162C544.812 9.05667 544.791 9.2896 544.77 9.58156C544.727 10.1648 544.686 10.9593 544.65 11.9673C544.578 13.9827 544.519 16.8235 544.475 20.499C544.39 27.6484 544.353 37.9296 544.351 51.3776C546.544 51.2719 549.434 50.8755 552.866 50.1655L552.909 50.1569L555.849 49.6832C558.578 49.2637 560.685 49.0175 562.247 49.0174C562.84 49.0174 563.564 49.0092 564.176 49.1838H564.18C566.21 49.6349 567.858 50.4161 568.999 51.6422C570.16 52.8916 570.689 54.4884 570.689 56.3326L570.629 57.438C570.343 59.9441 569.06 61.9256 566.805 62.9778L566.749 63.0077L566.685 63.0248C565.26 63.4999 563.155 63.7887 560.557 63.7887H560.523L556.016 63.6479L555.986 63.6436C553.578 63.502 551.361 63.3662 549.43 63.3662C547.554 63.3663 545.903 63.4833 544.351 63.6095C544.351 90.2227 544.353 106.062 544.445 111.287L544.492 112.887L544.496 112.943L544.492 112.994L544.351 116.519L544.343 116.758L544.236 116.972L544.193 117.048C544.121 118.45 543.556 120.089 542.631 121.922C541.627 123.913 540.148 126.254 538.231 128.952C537.102 130.574 536.162 131.839 535.423 132.708C535.056 133.139 534.712 133.504 534.398 133.77C534.242 133.903 534.066 134.035 533.878 134.137C533.702 134.233 533.426 134.351 533.092 134.351C531.503 134.35 530.294 133.208 529.371 131.683C528.662 130.512 528.011 128.941 527.399 126.997L526.801 124.931L526.797 124.914C526.491 123.691 526.341 122.471 526.341 120.979C526.341 119.394 526.482 117.126 526.9 114.577L526.2 21.933C525.667 19.2315 524.512 17.1062 522.64 15.4841L522.61 15.4585L522.585 15.4329C522.303 15.1516 521.976 14.826 521.629 14.4598L520.545 13.2435L520.528 13.2264C519.718 12.2127 519.439 10.6149 519.439 9.00539C519.439 7.65798 519.588 6.18244 519.879 4.5838L519.892 4.52405L519.909 4.4643C520.342 2.99421 521.23 1.87483 522.529 1.1481C523.794 0.440516 525.378 0.140934 527.177 0.140869C529.301 0.140869 533.237 0.882751 538.696 2.14254H538.692C540.61 2.56886 542.116 3.0097 543.165 3.50401C543.688 3.75066 544.167 4.04079 544.526 4.40028C544.897 4.77129 545.196 5.27888 545.196 5.90686Z" fill="black"/>
<path d="M419.29 6.0477C419.148 4.92163 417.454 4.0757 414.497 3.51255L410.554 2.66749C407.597 1.6821 404.919 1.25907 402.526 1.25907C400.977 1.25928 399.568 1.54095 398.441 2.10412C397.315 2.52693 396.469 3.79507 395.765 5.48434C395.484 6.46968 395.343 7.45668 395.343 8.44202C395.343 10.2715 395.625 11.5405 396.047 12.3856C396.751 13.3709 397.597 14.3577 398.582 15.2024C400.976 17.3151 402.244 20.6994 402.526 25.2065L389.005 25.3474L387.421 25.1809C386.894 25.1413 386.366 25.1174 385.838 25.0998L382.667 25.0657C377.175 25.0659 374.498 26.4742 374.498 29.5726L374.524 31.4761C374.57 33.1718 374.674 34.2558 374.78 34.7838C375.396 36.5079 377.091 37.4782 379.957 37.7884L381.258 37.8823C383.371 37.8823 385.625 37.7412 388.019 37.3189L402.666 36.333L402.807 49.1497L387.596 49.5722L382.808 49.4314C377.597 49.4316 374.921 51.1217 374.921 54.7834L374.946 56.2387C374.999 57.5647 375.132 58.516 375.343 59.1495C375.959 60.874 377.655 61.8443 380.426 62.0602L381.681 62.1072L402.948 60.1354L403.089 69.9943L402.897 71.9832C402.844 72.6697 402.807 73.3747 402.807 74.0787L402.863 75.9908C403.111 80.3642 404.233 84.0782 406.328 87.0362C407.191 88.3912 408.27 89.0991 409.563 89.2556L410.131 89.2897C411.68 89.2897 414.075 86.7537 417.173 81.6842C417.913 80.0822 418.331 78.3718 418.424 76.5542L418.445 75.7689C418.375 75.2056 418.339 74.4654 418.321 73.5325L418.3 70.1352L418.445 66.1916L418.3 59.0086C418.3 55.5232 418.3 52.1949 418.36 49.0857L418.445 46.0512L418.586 31.5444L418.3 14.0757C418.37 13.4427 418.443 12.8099 418.53 12.1594L418.868 10.1321C419.079 9.077 419.207 8.10045 419.26 7.08482L419.29 6.0477ZM300.142 50.2764C300.142 39.4444 299.644 31.5812 298.456 26.4784L298.208 25.4967C297.921 24.4198 297.668 23.3402 297.436 22.2702L296.783 19.0863L296.774 19.0393L296.766 18.9881C296.7 18.393 296.603 17.8333 296.484 17.2596L296.083 15.4457C295.814 14.2351 295.494 12.9611 295.494 11.6814C295.494 10.5607 295.803 9.54703 296.548 8.77492C297.276 8.02209 298.287 7.63817 299.412 7.47747C301.385 7.19569 302.863 7.04214 303.795 7.04214C305.117 7.04219 306.436 7.19135 307.752 7.47747L309.117 7.61404C313.01 7.77761 316.051 9.16175 317.978 12.2106L318.007 12.2618L318.033 12.3088C318.679 13.5999 318.997 15.0405 318.998 16.47L318.972 17.1614C318.966 17.2428 318.951 17.3221 318.942 17.4004C320.671 17.4619 323.582 17.4645 327.738 17.4645V18.5827L321.187 18.5656C319.498 18.548 318.302 18.5122 317.598 18.4418C317.703 18.1247 317.808 17.6498 317.854 17.0761L317.879 16.47C317.879 15.2031 317.597 13.9343 317.034 12.8081C315.344 10.133 312.668 8.86464 309.006 8.72371L307.598 8.58286C306.648 8.37173 305.697 8.2431 304.747 8.19021L303.795 8.16034C302.95 8.16034 301.541 8.30128 299.57 8.58286L298.874 8.72371C297.366 9.12625 296.613 10.0809 296.612 11.6814L296.659 12.5307C296.752 13.3819 296.965 14.2524 297.176 15.2024C297.457 16.4694 297.739 17.5975 297.88 18.8643C298.302 20.977 298.725 23.0938 299.288 25.2065C300.696 30.4179 301.26 38.7287 301.26 50.2764L301.311 57.9118C301.41 64.8438 301.647 69.6774 301.964 72.5295C302.624 76.7534 303.902 78.9995 306.032 79.2643L306.471 79.2899C308.302 79.2896 310.556 77.8811 313.091 75.0646C314.64 73.234 315.626 71.4026 315.908 69.8535C316.964 69.8534 317.862 69.6929 318.78 69.4352L319.71 69.1493C322.668 67.8817 326.189 67.3183 330.133 67.3183L332.877 67.3695C335.617 67.4686 338.337 67.7056 340.978 68.0225C343.231 68.3042 345.766 68.445 348.583 68.4451C350.801 68.4451 352.862 68.6016 354.823 68.8591L356.752 69.1493H357.456C358.688 70.0119 360.137 70.442 361.801 70.5364L362.526 70.5577C362.95 70.5577 363.215 70.5577 363.38 70.4979L363.512 70.4169C365.484 69.8535 367.315 67.7402 369.005 64.2198C369.498 62.618 369.885 60.9074 369.974 58.9958L369.991 58.1636C369.991 57.0372 369.85 55.9097 369.709 54.7834C369.568 54.1492 369.497 53.3022 369.462 52.2098L369.428 48.1638C369.692 36.8075 370.327 29.9059 371.566 27.5795L371.822 27.1783C372.526 26.4741 372.808 24.7798 372.808 22.1037C372.807 19.5693 371.399 17.1737 368.583 14.9208C365.766 12.5272 362.385 11.3997 358.724 11.3997C355.907 11.3998 352.949 12.2451 350.132 13.9349C346.611 15.7658 343.794 17.0334 341.259 17.5968C338.302 18.301 333.795 18.5827 327.738 18.5827V17.4645C333.79 17.4645 338.181 17.1834 340.999 16.5127L341.016 16.5084C343.397 15.9794 346.102 14.7718 349.616 12.9447C352.57 11.185 355.702 10.2816 358.724 10.2815C362.617 10.2815 366.251 11.4835 369.283 14.0501C372.246 16.4213 373.925 19.1035 373.926 22.1037C373.926 23.4698 373.856 24.6423 373.679 25.5864C373.516 26.4529 373.235 27.2827 372.697 27.874C372.497 28.1442 372.236 28.7314 371.98 29.786C371.727 30.8275 371.505 32.2069 371.314 33.9345C370.932 37.389 370.687 42.1424 370.546 48.1894C370.546 50.6591 370.551 52.3678 370.657 53.5371L370.802 54.5401L370.815 54.5913L370.819 54.6425C370.958 55.7572 371.109 56.9554 371.109 58.1636L371.088 59.047C370.994 61.0797 370.588 62.8863 370.076 64.5484L370.051 64.6295L370.012 64.7021C368.352 68.1618 366.401 70.6409 364.02 71.4241C363.747 71.586 363.471 71.6316 363.303 71.6503C363.068 71.6764 362.781 71.6759 362.526 71.6759C360.53 71.6758 358.714 71.2635 357.14 70.2675H356.658L356.568 70.2504C354.704 69.9396 352.768 69.7069 350.7 69.6102L348.583 69.5633C345.731 69.5632 343.149 69.4206 340.841 69.1322C337.352 68.7137 333.737 68.4365 330.133 68.4365C326.287 68.4365 322.927 68.9878 320.15 70.1778L320.107 70.1949L320.065 70.2077C318.995 70.5641 317.969 70.8312 316.783 70.9247C316.301 72.4981 315.305 74.178 313.944 75.7859L313.923 75.8115C312.613 77.2677 311.338 78.4032 310.116 79.1789C308.9 79.9508 307.67 80.4079 306.471 80.4081C304.839 80.4081 303.559 79.6032 302.647 78.2144C301.994 77.2194 301.516 75.9123 301.166 74.3476L300.859 72.7002L300.85 72.6533C300.42 68.7834 300.142 61.4043 300.142 50.2764ZM353.099 31.9669C353.099 31.2088 352.892 30.7404 352.565 30.4134C352.211 30.0591 351.586 29.7376 350.516 29.547C348.047 29.2756 345.009 29.1416 341.118 29.1416L337.64 29.2781L337.597 29.2824C328.674 29.2824 322.033 29.7778 317.739 30.6225L317.871 40.6821V40.7077L317.73 54.0877V54.1304L317.726 54.1688L317.658 54.9754C321.346 56.1654 324.891 56.7637 328.302 56.7637V57.8819L326.868 57.8478C323.51 57.6936 320.044 57.0013 316.471 55.7693L316.612 54.0792L316.753 40.6992L316.612 29.7135C320.432 28.8508 326.3 28.3112 334.123 28.1898L337.597 28.1642L341.118 28.0234C345.062 28.0234 348.161 28.1642 350.696 28.4459C353.09 28.8684 354.217 29.9951 354.217 31.9669L354.2 45.5561C354.182 49.4648 354.146 52.741 354.076 55.3467C352.808 55.4876 351.4 55.6284 349.991 55.6284C346.189 55.7693 342.386 56.1918 338.583 56.896L335.809 57.3441C333.108 57.7206 330.626 57.8819 328.302 57.8819V56.7637C331.33 56.7637 334.642 56.4867 338.378 55.7949C342.233 55.081 346.091 54.6532 349.949 54.5102L349.991 54.506C350.993 54.506 352.001 54.4231 352.975 54.3267C353.091 49.1461 353.099 41.6228 353.099 31.9669ZM420.378 7.14457C420.322 8.21968 420.181 9.25076 419.96 10.3541C419.695 11.6787 419.56 12.877 419.422 14.1184L419.704 31.5231V31.5529L419.563 46.0597L419.559 46.0896C419.419 50.0094 419.422 54.3556 419.422 59.0086L419.563 66.1702V66.2001L419.559 66.23L419.418 70.1352L419.439 73.5111C419.448 73.9633 419.459 74.363 419.478 74.7147L419.555 75.628L419.563 75.6963V75.7689L419.542 76.6096C419.443 78.5642 418.991 80.4162 418.189 82.1537L418.163 82.2092L418.129 82.2647C416.563 84.8279 415.144 86.8036 413.891 88.1502C413.265 88.8229 412.651 89.3704 412.056 89.7549C411.47 90.1329 410.816 90.4079 410.131 90.4079C408.157 90.4073 406.552 89.4706 405.385 87.638C402.842 84.0216 401.689 79.4206 401.689 74.0787C401.689 72.6398 401.829 71.2127 401.967 69.9644L401.847 61.3603L381.783 63.2211L381.732 63.2254H381.681C378.277 63.2252 375.604 62.3284 374.494 60.0073L374.289 59.5251L374.285 59.5037C373.941 58.4716 373.802 56.9007 373.802 54.7834C373.802 52.636 374.614 50.9204 376.291 49.8027C377.883 48.7413 380.119 48.3133 382.808 48.3132H382.842L387.596 48.4497L401.676 48.0614L401.561 37.5238L388.155 38.4286C385.706 38.8567 383.404 39.0005 381.258 39.0005H381.216C377.717 38.8658 375.035 37.9594 373.926 35.6416L373.726 35.1594L373.7 35.0825L373.683 35.0014C373.519 34.1805 373.38 32.3951 373.38 29.5726C373.38 28.6335 373.586 27.7591 374.041 26.9905C374.497 26.2216 375.164 25.6214 375.988 25.1724C377.594 24.2963 379.866 23.9433 382.667 23.9432C384.727 23.9432 386.871 23.9443 389.026 24.2206L401.301 24.0926C400.895 20.3614 399.731 17.7085 397.844 16.0432C397.047 15.3587 396.341 14.5943 395.727 13.8196L395.138 13.0386L395.087 12.966L395.048 12.8892C394.52 11.8332 394.224 10.3714 394.224 8.44202C394.225 7.34866 394.381 6.25831 394.69 5.17704L394.732 5.05754C395.425 3.3945 396.397 1.7432 397.942 1.10542L398.45 0.874956C399.661 0.374886 401.061 0.141052 402.526 0.140869C405.029 0.140869 407.797 0.579805 410.823 1.57917L414.711 2.41568C416.232 2.70561 417.516 3.08477 418.466 3.58083C419.267 3.99879 420.041 4.61189 420.314 5.50994L420.4 5.91113L420.408 5.97942V6.0477L420.378 7.14457Z" fill="black"/>
<path d="M221.122 122.529C220.982 120.274 220.982 109.711 220.841 90.9799L261.267 90.6982C262.534 90.6985 264.366 90.9802 266.478 91.5433C268.062 91.9656 269.488 92.2316 270.874 92.3371L272.252 92.3883C276.9 92.247 280.562 89.9937 282.956 85.7688C283.449 84.9061 283.832 84.1504 283.921 83.3147L283.942 82.9519C283.942 81.403 283.097 79.9939 281.407 78.5858C280.667 78.0573 279.767 77.7675 278.77 77.6554L277.745 77.5999C276.055 77.5999 274.083 77.8819 271.971 78.5858L270.336 79.0595C268.758 79.4822 267.358 79.7476 266.196 79.8534L196.266 80.5021C180.35 80.6606 171.828 80.7689 170.701 80.8393L168.038 80.7881C165.667 80.6957 164.187 80.4872 163.659 80.2759C162.532 80.1351 160.983 79.9942 159.293 79.5717C156.089 78.9556 153.747 78.5526 152.08 78.462L151.406 78.445C149.293 78.445 146.899 79.29 144.363 81.121L142.533 82.2477L141.794 82.6745C140.189 83.6935 139.434 84.835 139.434 86.1913L139.498 86.8528C139.805 88.4567 141.178 90.5052 143.518 93.0925C144.751 94.2018 146.2 94.8784 147.769 95.0302L148.448 95.0643C149.821 95.0643 151.829 94.6667 154.47 93.9931L157.321 93.2334C159.293 92.3706 161.912 91.8309 165.084 91.7097L166.476 91.6841C169.152 91.5433 181.968 91.2616 204.926 91.1208L205.348 117.881C205.348 119.007 205.207 120.134 205.207 121.12C205.066 122.106 204.926 123.092 204.926 123.937C204.926 125.909 205.489 127.881 206.475 129.852C207.179 131.261 209.152 131.965 212.109 131.965C214.221 131.965 216.334 131.542 218.306 130.416C220.137 129.43 221.122 126.754 221.122 122.529ZM227.742 13.2308C227.742 12.8093 227.601 12.5259 227.32 12.104C223.658 7.73907 219.573 5.62528 215.066 5.62528C213.94 5.62572 213.094 6.18966 212.39 7.45623C205.348 19.2873 198.588 29.15 192.109 36.8965C190.42 38.7268 189.433 39.9953 188.729 40.9809L186.676 43.5076C182.022 49.1419 178.324 52.9173 175.49 54.6426C172.11 56.4735 169.011 58.4455 166.194 60.8397C163.237 63.5154 160.842 65.3467 159.152 66.3325C156.617 67.7409 155.208 69.0086 155.208 69.9944L155.234 70.2292C155.319 70.6682 155.61 71.3215 156.041 72.154L156.617 73.2338H157.462L157.837 73.2082C158.565 73.1189 159.795 72.8006 161.563 72.2223L163.941 71.4028C165.525 70.7689 167.19 70.2141 168.755 69.7981L170.278 69.4311C175.454 67.9522 181.168 64.8531 187.423 60.2336L190.137 58.1637C196.545 53.1111 201.338 48.705 204.606 44.852L205.912 43.2344C206.756 41.9674 207.743 40.6991 208.728 39.7134C214.503 34.5021 219.573 28.5827 223.798 22.2447C226.474 18.1605 227.742 15.0616 227.742 13.2308ZM214.652 42.1077C214.652 40.7431 215.167 39.5451 216.142 38.5695C217.089 37.6221 218.437 36.9159 220.081 36.3929L220.282 36.3289L220.495 36.3417C224.857 36.6326 228.679 37.6552 232.219 39.5725L232.262 39.5981C236.573 42.1847 239.745 43.8684 241.997 44.7879L242.906 45.1336L242.953 45.155C246.35 46.5351 249.05 47.7647 251.045 48.7827L252.808 49.726L252.833 49.743L252.863 49.7601C256.018 51.8174 259.289 53.3119 262.394 54.1219H262.389C264.237 54.4989 265.788 55.1604 266.888 56.2388C268.032 57.3604 268.582 58.8258 268.582 60.558L268.552 61.2665C268.501 61.9756 268.388 62.6855 268.288 63.3919L268.279 63.4517L268.262 63.5114C266.987 68.4684 265.365 72.047 262.782 73.985L262.342 74.3136L261.817 74.1727C258.532 73.2767 255.038 71.22 251.468 67.9586L232.292 57.8863L232.185 57.8265L232.087 57.7454C228.808 54.9522 225.203 52.3674 221.366 49.9906L219.71 48.9833L219.684 48.9705C218.44 48.1929 217.202 47.1041 216.125 45.5647V45.5604C215.268 44.414 214.653 43.3278 214.652 42.1077ZM285.035 83.4342C284.918 84.5308 284.42 85.4617 283.93 86.3193C281.352 90.8683 277.342 93.3528 272.287 93.5065H272.252C270.301 93.5065 268.368 93.2046 266.188 92.6231C264.125 92.073 262.399 91.8167 261.267 91.8164L221.963 92.0896C222.062 105.554 222.096 114.607 222.16 119.247L222.241 122.46V122.529C222.241 124.716 221.99 126.584 221.455 128.068C220.919 129.557 220.066 130.734 218.835 131.397C216.667 132.629 214.364 133.083 212.109 133.083C210.555 133.083 209.177 132.9 208.058 132.486C207.073 132.121 206.231 131.551 205.69 130.723L205.476 130.352C204.435 128.268 203.807 126.125 203.807 123.937C203.807 123.017 203.954 121.972 204.089 121.026C204.093 120.518 204.129 119.985 204.162 119.481C204.197 118.938 204.229 118.414 204.23 117.898L203.824 92.2475C181.559 92.3905 169.139 92.6654 166.535 92.8023H166.476C162.769 92.8023 159.836 93.3535 157.769 94.2577L157.697 94.2918L157.62 94.3132C153.581 95.4274 150.462 96.1824 148.448 96.1825C146.58 96.1825 144.851 95.5511 143.382 94.4327L142.772 93.9248L142.729 93.8864L142.69 93.8437C141.33 92.3402 140.255 90.9748 139.515 89.7422C138.785 88.5245 138.316 87.3305 138.316 86.1913C138.316 84.0546 139.716 82.5006 141.948 81.2959L143.706 80.2119C146.372 78.2867 148.993 77.3268 151.406 77.3268C153.223 77.3268 155.87 77.7722 159.502 78.4706L159.566 78.4834V78.4876C160.368 78.6881 161.134 78.8216 161.845 78.923L163.8 79.1662L163.941 79.1833L164.073 79.2345C164.253 79.3066 164.875 79.4437 166.066 79.5504C167.196 79.6515 168.732 79.7158 170.658 79.7168C173.164 79.573 205.021 79.2957 266.119 78.7352C267.558 78.6017 269.432 78.2047 271.617 77.5231L272.445 77.267C274.36 76.7126 276.16 76.4817 277.745 76.4817C279.094 76.4819 280.432 76.7157 281.578 77.3694L282.056 77.6767L282.09 77.6981L282.12 77.7237C283.938 79.2388 285.061 80.9348 285.061 82.9519L285.035 83.4342ZM215.792 42.4235C215.884 43.1668 216.299 43.9386 217.038 44.9245C218.024 46.3326 219.151 47.3189 220.277 48.023C224.784 50.699 229.01 53.6568 232.812 56.8961L252.112 67.0367C255.192 69.87 258.164 71.7339 260.934 72.7216L262.112 73.093C264.084 71.6138 265.515 68.9469 266.691 65.0009L267.182 63.234C267.288 62.495 267.392 61.834 267.438 61.1939L267.464 60.558C267.464 57.9697 266.059 56.3532 263.35 55.5176L262.112 55.206C258.873 54.3611 255.492 52.811 252.253 50.699C250.281 49.5723 247.038 48.0231 242.53 46.1921C240.136 45.3468 236.614 43.5156 231.686 40.5584C228.306 38.7276 224.643 37.7416 220.418 37.4599C217.321 38.4458 215.77 39.9954 215.77 42.1077L215.792 42.4235ZM228.86 13.2308C228.86 14.3693 228.477 15.7676 227.802 17.3365C227.118 18.9262 226.099 20.7807 224.737 22.8592L224.729 22.8678C220.464 29.2653 215.345 35.2338 209.518 40.4987C208.599 41.4173 207.66 42.626 206.842 43.8533L206.825 43.8831L206.799 43.913C203.476 48.2475 198.179 53.2429 190.829 59.0386C183.449 64.8569 176.699 68.76 170.586 70.5066L170.552 70.5151L170.513 70.5237C168.612 70.9311 166.417 71.6148 164.355 72.44L164.32 72.4528C162.545 73.0917 161.107 73.5604 159.997 73.8697C158.925 74.1683 158.054 74.352 157.462 74.352H155.951L155.635 73.7673C155.213 72.9928 154.842 72.293 154.577 71.7059C154.337 71.1743 154.09 70.5464 154.09 69.9944C154.09 69.0007 154.764 68.1506 155.473 67.4977C156.231 66.7998 157.295 66.0837 158.589 65.3637L159.916 64.5101C161.38 63.4957 163.24 62.0004 165.443 60.0074L165.468 59.9861L166.57 59.0856C169.162 57.0266 171.961 55.2791 174.956 53.6567C177.997 51.786 182.232 47.3102 187.85 40.2895C188.575 39.2774 189.575 37.9935 191.251 36.1752C197.679 28.4891 204.407 18.6833 211.43 6.88433C211.834 6.1654 212.322 5.56423 212.941 5.143C213.584 4.70543 214.302 4.5073 215.066 4.50708C219.978 4.50708 224.356 6.83083 228.177 11.387L228.216 11.434L228.25 11.4852C228.569 11.963 228.86 12.473 228.86 13.2308Z" fill="black"/>
<path d="M82.9521 80.707C85.5877 80.7071 87.7728 80.849 89.4648 81.1465C90.8918 81.3975 92.139 81.7851 92.9814 82.4307L93.3184 82.7256C93.6553 83.0618 94.3644 83.4364 95.5811 83.7793L96.9717 84.1084L97.0059 84.1123L97.04 84.125C99.1103 84.6771 102.19 86.473 106.046 89.4648L107.744 90.8174L107.774 90.8428C112.424 94.9288 115.533 98.295 116.907 101.044C118.025 103.141 118.436 106.335 118.436 110.416L118.38 112.674C118.125 117.8 116.963 121.957 114.705 125.145C111.165 130.159 106.298 132.246 101.885 134.986C99.866 136.24 99.7416 135.793 97.2363 137.577L97.2324 137.582C93.1864 140.164 91.0009 142.349 77.5996 140.635L77.5957 140.631C69.1496 140.164 64.779 137.979 61.1172 137.112C59.4593 137.112 57.6724 136.217 56.4141 136.011C55.1927 135.81 54.1347 135.493 53.4258 134.986L53.4131 134.978C48.1868 131.134 45.7734 123.907 45.7734 113.655C45.7735 107.225 49.7623 101.443 57.0664 96.2803C58.7847 94.9916 60.3604 93.9905 61.8984 93.0117L64.9287 90.9238C67.6949 88.9744 69.6707 87.4245 70.8604 86.1357L70.916 86.0801C73.4609 83.6768 75.7331 81.9631 77.8301 81.3174C79.2675 80.8428 80.9585 80.707 82.9521 80.707ZM58.0127 135.08C58.0425 135.083 58.0724 135.085 58.1025 135.088C58.0724 135.085 58.0425 135.083 58.0127 135.08ZM56.5166 134.891C56.6974 134.921 56.8861 134.951 57.083 134.978C56.8861 134.951 56.6974 134.921 56.5166 134.891ZM54.6973 134.408C54.7554 134.432 54.8154 134.456 54.8779 134.479C54.8154 134.456 54.7554 134.432 54.6973 134.408ZM51.5576 131.658C52.273 132.545 53.0712 133.319 53.9512 133.982C53.0712 133.319 52.273 132.545 51.5576 131.658ZM79.1982 133.972C79.663 133.941 80.1194 133.912 80.5674 133.881C80.1194 133.912 79.663 133.941 79.1982 133.972ZM81.5303 133.812C82.1692 133.767 82.79 133.722 83.3926 133.677C82.79 133.722 82.1692 133.767 81.5303 133.812ZM84.3486 133.602C84.9102 133.557 85.4548 133.513 85.9824 133.469C85.4548 133.513 84.9102 133.557 84.3486 133.602ZM89.2959 133.161C89.4586 133.144 89.6191 133.128 89.7773 133.111C89.6191 133.128 89.4586 133.144 89.2959 133.161ZM94.4697 132.478C93.5185 132.648 92.3791 132.811 91.0537 132.968C92.3128 132.819 93.4047 132.668 94.3262 132.507L94.4697 132.478ZM97.7725 131.874C97.7252 131.88 97.678 131.886 97.6309 131.892C97.678 131.886 97.7252 131.88 97.7725 131.874ZM101.399 131.684C100.77 131.684 100.166 131.698 99.5791 131.727C99.674 131.722 99.7694 131.717 99.8652 131.713L101.402 131.684C101.409 131.684 101.415 131.683 101.422 131.683C101.415 131.683 101.407 131.684 101.399 131.684ZM102.385 131.649C102.348 131.652 102.311 131.654 102.273 131.656C102.311 131.654 102.348 131.652 102.385 131.649ZM105.127 131.181C104.996 131.218 104.864 131.253 104.731 131.286C104.864 131.253 104.996 131.218 105.127 131.181ZM49.9854 129.292C50.2493 129.776 50.5323 130.236 50.8301 130.674C50.5323 130.236 50.2493 129.776 49.9854 129.292ZM115.236 121.986C114.82 122.891 114.34 123.73 113.794 124.501C112.315 126.596 110.702 128.233 108.941 129.411C110.702 128.233 112.317 126.596 113.796 124.5C114.342 123.729 114.821 122.891 115.236 121.986ZM48.5312 125.882C48.6848 126.348 48.8493 126.8 49.0244 127.236C48.8493 126.8 48.6848 126.348 48.5312 125.882ZM87.3184 95.1963C86.2303 95.1963 84.7546 95.6054 82.8662 96.541C80.9946 97.4684 78.8012 98.8715 76.2979 100.749L76.2725 100.767L76.2422 100.787C68.0417 106.208 63.4023 111.903 62.2178 117.953L62.2139 117.957C62.0614 118.719 61.9532 119.148 61.9531 119.712C61.9532 121.17 62.305 122.026 62.8066 122.528C63.155 122.877 65.4153 123.878 67.2344 124.451C68.5036 124.466 69.797 124.609 71.334 124.867C73.5191 124.867 74.4983 126.038 77.5967 125.897C80.6951 125.757 83.9539 125.571 86.6299 124.867C87.8975 124.585 87.9778 124.5 91.001 122.682C92.778 121.613 94.6399 119.853 97.7383 118.304L99.4277 117.74C99.5195 117.718 99.6101 117.694 99.6992 117.67C100.662 117.037 101.41 115.636 101.885 114.975C102.466 114.162 102.819 113.004 102.819 111.402C102.819 110.461 102.583 109.475 102.175 108.248C101.118 105.21 99.2591 102.538 96.6865 100.101C92.9672 96.66 89.8533 95.1972 87.3184 95.1963ZM48.3613 125.345C48.2625 125.02 48.166 124.688 48.0771 124.35C48.166 124.688 48.2624 125.02 48.3613 125.345ZM65.625 124.501C65.6341 124.5 65.6433 124.5 65.6523 124.499C65.6429 124.5 65.6334 124.499 65.624 124.5C65.5245 124.5 65.4264 124.499 65.3301 124.496C65.4268 124.499 65.5251 124.501 65.625 124.501ZM64.0215 124.344C64.4143 124.429 64.8439 124.48 65.3115 124.495C64.844 124.48 64.4143 124.429 64.0215 124.344ZM63.2891 124.129C63.4076 124.174 63.5308 124.215 63.6582 124.252C63.5308 124.215 63.4076 124.174 63.2891 124.129ZM61.6465 122.88C61.9265 123.278 62.2796 123.601 62.708 123.852C62.2796 123.601 61.9266 123.278 61.6465 122.88ZM46.9346 112.552C46.906 112.918 46.8916 113.286 46.8916 113.655C46.8916 116.19 47.0415 118.514 47.3408 120.629C47.0416 118.514 46.8926 116.19 46.8926 113.655C46.8926 113.286 46.906 112.918 46.9346 112.552ZM115.534 121.301C115.495 121.397 115.454 121.492 115.413 121.587C115.454 121.492 115.495 121.397 115.534 121.301ZM115.713 120.848C115.736 120.786 115.758 120.723 115.781 120.661C115.758 120.723 115.736 120.786 115.713 120.848ZM115.98 120.097C115.994 120.057 116.006 120.017 116.019 119.978C116.006 120.017 115.994 120.057 115.98 120.097ZM116.419 118.596C116.424 118.575 116.429 118.554 116.435 118.533C116.429 118.554 116.424 118.575 116.419 118.596ZM116.591 117.865C116.605 117.8 116.62 117.735 116.634 117.67C116.62 117.735 116.605 117.8 116.591 117.865ZM116.764 117.021C116.768 116.996 116.773 116.972 116.777 116.948C116.773 116.972 116.768 116.996 116.764 117.021ZM117.109 114.603C117.138 114.331 117.163 114.057 117.186 113.778C117.163 114.057 117.138 114.331 117.109 114.603ZM117.198 113.615C117.214 113.401 117.227 113.186 117.24 112.968C117.227 113.186 117.214 113.401 117.198 113.615ZM103.916 112.046C103.908 112.184 103.896 112.321 103.884 112.457C103.914 112.153 103.931 111.837 103.934 111.508L103.916 112.046ZM47.0586 111.494C47.0364 111.638 47.0168 111.782 46.999 111.926C47.0168 111.782 47.0364 111.638 47.0586 111.494ZM47.1504 110.964C47.1242 111.099 47.1013 111.235 47.0791 111.37C47.1013 111.235 47.1242 111.099 47.1504 110.964ZM47.2686 110.414C47.2371 110.548 47.2081 110.682 47.1807 110.816C47.2081 110.682 47.2372 110.548 47.2686 110.414ZM100.007 86.6709C101.913 87.7666 104.276 89.4266 107.034 91.6836C111.682 95.768 114.64 99.0078 115.907 101.543C116.893 103.374 117.315 106.332 117.315 110.416C117.315 110.462 117.314 110.509 117.313 110.555L117.317 110.416C117.317 106.332 116.895 103.374 115.909 101.543C114.642 99.0079 111.683 95.7677 107.036 91.6836C104.277 89.4263 101.913 87.7667 100.007 86.6709ZM47.4014 109.894C47.3631 110.033 47.3279 110.173 47.2939 110.313C47.3279 110.173 47.3631 110.033 47.4014 109.894ZM47.5518 109.381C47.512 109.508 47.4737 109.635 47.4375 109.763C47.4737 109.635 47.512 109.508 47.5518 109.381ZM47.7295 108.849C47.6858 108.972 47.6438 109.095 47.6035 109.219C47.6438 109.095 47.6858 108.972 47.7295 108.849ZM47.917 108.349C47.8713 108.465 47.8268 108.581 47.7842 108.697C47.8268 108.581 47.8713 108.465 47.917 108.349ZM48.1377 107.816C48.0876 107.931 48.0373 108.046 47.9902 108.161C48.0373 108.046 48.0876 107.931 48.1377 107.816ZM48.3447 107.359C48.3015 107.451 48.2581 107.542 48.2168 107.634C48.2581 107.542 48.3015 107.451 48.3447 107.359ZM48.6768 106.693C48.6011 106.837 48.5279 106.981 48.457 107.125C48.5279 106.981 48.6011 106.837 48.6768 106.693ZM48.9814 106.138C48.8856 106.305 48.7924 106.472 48.7031 106.641C48.7924 106.472 48.8856 106.305 48.9814 106.138ZM49.0898 105.951C49.3519 105.506 49.6367 105.062 49.9453 104.622C49.6366 105.062 49.352 105.506 49.0898 105.951ZM50.3281 104.095C50.2504 104.199 50.1757 104.304 50.1006 104.408C50.1757 104.304 50.2504 104.199 50.3281 104.095ZM50.7178 103.59C50.6224 103.71 50.5293 103.831 50.4375 103.952C50.5293 103.831 50.6224 103.71 50.7178 103.59ZM51.0752 103.148C51.001 103.238 50.9286 103.328 50.8564 103.417C50.9286 103.328 51.001 103.238 51.0752 103.148ZM51.5254 102.622C51.4499 102.708 51.3764 102.795 51.3027 102.881C51.3764 102.795 51.4499 102.708 51.5254 102.622ZM51.9395 102.163C51.8514 102.259 51.7645 102.354 51.6787 102.45C51.7645 102.354 51.8514 102.259 51.9395 102.163ZM52.3945 101.681C52.3182 101.76 52.2427 101.839 52.168 101.918C52.2427 101.839 52.3182 101.76 52.3945 101.681ZM52.8906 101.179C52.7996 101.269 52.7101 101.359 52.6211 101.449C52.7101 101.359 52.7996 101.269 52.8906 101.179ZM53.3398 100.746C53.2672 100.815 53.1945 100.883 53.123 100.952C53.1945 100.883 53.2672 100.815 53.3398 100.746ZM53.9248 100.204C53.8242 100.295 53.7244 100.385 53.626 100.477C53.7244 100.385 53.8242 100.295 53.9248 100.204ZM54.4854 99.708C54.3605 99.816 54.237 99.9239 54.1152 100.032C54.237 99.9239 54.3605 99.816 54.4854 99.708ZM55.0273 99.25C54.9094 99.3481 54.7912 99.4445 54.6758 99.543C54.7912 99.4445 54.9094 99.3481 55.0273 99.25ZM55.6455 98.7461C55.5159 98.8496 55.3866 98.9519 55.2598 99.0557C55.3866 98.9519 55.5159 98.8496 55.6455 98.7461ZM56.0166 98.4521C56.1646 98.3368 56.3142 98.2214 56.4658 98.1064L56.4307 98.1328C56.291 98.2389 56.1532 98.3457 56.0166 98.4521ZM79.2148 97.3457C78.9333 97.5259 78.6471 97.7134 78.3564 97.9082C78.6467 97.7137 78.9326 97.5266 79.2139 97.3467L79.2148 97.3457ZM58.7432 96.4443C58.4126 96.6788 58.0766 96.9215 57.7363 97.1768L57.6836 97.2139C57.7013 97.2013 57.7195 97.1893 57.7373 97.1768C58.0775 96.9216 58.4133 96.6789 58.7432 96.4443ZM87.3154 94.0781C85.8101 94.0781 83.9036 94.702 81.6211 95.9248L82.3691 95.5391C84.3234 94.5713 85.9788 94.0785 87.3164 94.0781H87.3154ZM91.791 95.2256C91.4062 95.0389 91.027 94.8751 90.6533 94.7344C91.0271 94.875 91.4061 95.0391 91.791 95.2256ZM90.0781 94.5352C90.2574 94.5922 90.4382 94.6539 90.6201 94.7217C90.4382 94.6538 90.2574 94.5922 90.0781 94.5352ZM87.877 94.0996C88.4868 94.1426 89.1142 94.255 89.7588 94.4385C88.9163 94.1984 88.1036 94.0786 87.3203 94.0781L87.877 94.0996ZM70.6025 87.9531C68.8041 89.5815 66.0858 91.5256 62.5254 93.9375L62.457 93.9814C62.4801 93.9668 62.5033 93.9522 62.5264 93.9375C66.0869 91.5255 68.8043 89.5812 70.6025 87.9531ZM98.9775 0.00878906C103.07 0.418112 106.136 0.840601 108.137 1.5752C108.464 1.60751 108.87 1.6817 109.28 1.77148C109.852 1.89649 110.61 2.07486 111.513 2.2832C113.029 2.64427 114.277 3.0631 115.2 3.57617C116.001 4.02104 116.692 4.61085 117.019 5.41992L117.134 5.77832L117.168 5.91113V6.04785L117.138 7.15723C117.082 8.26382 116.946 9.35714 116.72 10.375L116.707 10.4307L116.686 10.4863C116.314 11.6001 116.182 12.8789 116.182 14.0752C116.316 16.0273 116.325 23.2626 116.451 35.3945C118.518 35.2029 121.2 34.8266 124.59 34.2422C128.519 33.5406 131.571 33.0977 133.655 33.0977C134.238 33.0976 134.945 33.0946 135.55 33.2598C137.526 33.6397 139.154 34.3884 140.283 35.6035C141.428 36.8369 141.956 38.4354 141.956 40.2764L141.896 41.4463C141.779 42.5773 141.48 43.5868 140.975 44.4502C140.292 45.6165 139.277 46.4414 138.013 46.9473L137.991 46.9561C136.68 47.4478 134.692 47.7324 131.965 47.7324H131.927L127.561 47.5918L127.53 47.5879C125.125 47.4464 122.909 47.3106 120.838 47.3105C119.176 47.3106 117.689 47.4027 116.293 47.5107L116.041 56.0078L116.323 63.8955V63.9805L116.041 70.8818L116.178 73.3105L116.182 73.3447V73.374L116.131 74.4883C115.891 77.1006 114.812 79.7862 112.9 82.7168C111.814 84.3819 110.764 85.6699 109.763 86.5537C108.783 87.418 107.717 88.0132 106.613 88.0137C104.699 88.0137 102.957 87.128 101.77 85.3037C99.1921 81.8166 97.8898 77.1957 97.8896 71.2617V71.1846L98.3125 64.9883L97.6084 22.7354C97.3775 20.1455 96.4724 18.1144 94.9238 16.5684L94.2148 15.9326C91.7716 13.9472 90.4248 11.5366 90.4248 8.86426C90.4251 6.11002 91.0544 3.84443 92.542 2.27051C94.0417 0.683889 96.2217 0 98.8672 0H98.9229L98.9775 0.00878906ZM71.6797 86.8955C71.5783 87.0053 71.4718 87.1166 71.3604 87.2295C71.4723 87.1162 71.5799 87.0047 71.6816 86.8945C71.7238 86.8547 71.7666 86.8158 71.8086 86.7764C71.7662 86.8161 71.7223 86.8553 71.6797 86.8955ZM106.611 86.8945C106.602 86.8945 106.593 86.8936 106.584 86.8936L106.613 86.8955C106.624 86.8955 106.634 86.8937 106.645 86.8936C106.633 86.8937 106.622 86.8945 106.611 86.8945ZM106.83 86.8818C106.839 86.8809 106.848 86.88 106.856 86.8789C106.848 86.88 106.839 86.8809 106.83 86.8818ZM105.776 86.8223C105.863 86.8375 105.95 86.851 106.037 86.8613C105.95 86.851 105.863 86.8375 105.776 86.8223ZM107.064 86.8428C107.08 86.8394 107.096 86.8358 107.111 86.832C107.096 86.8358 107.08 86.8394 107.064 86.8428ZM105.523 86.7695C105.568 86.78 105.613 86.7887 105.657 86.7979C105.613 86.7887 105.568 86.78 105.523 86.7695ZM107.317 86.7754C107.34 86.7682 107.361 86.7598 107.384 86.752C107.361 86.7598 107.34 86.7682 107.317 86.7754ZM105.263 86.6992C105.307 86.7127 105.352 86.7253 105.396 86.7373C105.352 86.7253 105.307 86.7126 105.263 86.6992ZM107.634 86.6523C107.608 86.6639 107.582 86.6749 107.557 86.6855C107.582 86.6749 107.608 86.6639 107.634 86.6523ZM105.021 86.6172C105.056 86.6304 105.093 86.643 105.129 86.6553C105.093 86.643 105.056 86.6304 105.021 86.6172ZM107.788 86.5781C107.856 86.5442 107.923 86.5072 107.992 86.4678C107.923 86.5072 107.856 86.5442 107.788 86.5781ZM104.774 86.5176C104.812 86.534 104.849 86.5501 104.887 86.5654C104.849 86.5501 104.812 86.534 104.774 86.5176ZM104.544 86.4072C104.576 86.4235 104.607 86.4406 104.639 86.4561C104.607 86.4406 104.576 86.4235 104.544 86.4072ZM108.077 86.4189C108.163 86.3675 108.249 86.3119 108.337 86.252C108.249 86.3119 108.163 86.3675 108.077 86.4189ZM104.299 86.2715C104.334 86.2924 104.368 86.3141 104.403 86.334C104.368 86.3142 104.334 86.2924 104.299 86.2715ZM97.2559 85.3613C97.8734 85.5736 98.5885 85.896 99.3965 86.3311C98.5884 85.896 97.8734 85.5735 97.2559 85.3613ZM72.5654 86.0801C72.5092 86.1306 72.4531 86.1819 72.3965 86.2334C72.4531 86.1819 72.5092 86.1306 72.5654 86.0801ZM109.012 85.7236C108.793 85.9157 108.58 86.0832 108.372 86.2275C108.58 86.0831 108.793 85.9158 109.012 85.7236ZM103.963 86.0508C103.997 86.0756 104.032 86.0984 104.066 86.1221C104.032 86.0984 103.997 86.0756 103.963 86.0508ZM103.744 85.8799C103.77 85.9017 103.798 85.9223 103.824 85.9434C103.798 85.9223 103.77 85.9017 103.744 85.8799ZM103.557 85.7148C103.569 85.726 103.581 85.7371 103.593 85.748C103.581 85.7371 103.569 85.726 103.557 85.7148ZM103.356 85.5195C103.367 85.531 103.379 85.5424 103.39 85.5537C103.379 85.5424 103.368 85.531 103.356 85.5195ZM73.4395 85.3154C73.3643 85.379 73.2888 85.4434 73.2129 85.5088C73.2888 85.4434 73.3643 85.379 73.4395 85.3154ZM103.161 85.3037C103.174 85.3186 103.186 85.3339 103.199 85.3486C103.186 85.3339 103.174 85.3186 103.161 85.3037ZM109.458 85.3027C109.523 85.2378 109.589 85.1715 109.655 85.1025C109.589 85.1715 109.523 85.2378 109.458 85.3027ZM96.752 85.2051C96.8217 85.2237 96.8921 85.2466 96.9648 85.2686C96.8929 85.2468 96.8229 85.2235 96.7539 85.2051C96.6986 85.194 96.6442 85.1802 96.5898 85.1689C96.6436 85.1801 96.6973 85.1941 96.752 85.2051ZM73.9551 84.8877C73.8255 84.9926 73.6955 85.1013 73.5635 85.2119C73.6955 85.1013 73.8255 84.9926 73.9551 84.8877ZM102.951 85.0449C102.974 85.0754 102.997 85.1061 103.021 85.1357C102.997 85.106 102.974 85.0754 102.951 85.0449ZM109.794 84.9551C109.855 84.8892 109.916 84.8212 109.978 84.752C109.916 84.8212 109.855 84.8892 109.794 84.9551ZM93.9326 84.3906C94.3495 84.5687 94.8341 84.7317 95.3857 84.8828C94.8342 84.7316 94.3495 84.5688 93.9326 84.3906ZM110.146 84.5605C110.21 84.4868 110.274 84.4113 110.338 84.334C110.274 84.4113 110.21 84.4868 110.146 84.5605ZM75.5928 83.6748C75.203 83.9336 74.8019 84.2246 74.3877 84.5459C74.8019 84.2246 75.203 83.9335 75.5928 83.6748ZM110.475 84.168C110.551 84.0736 110.628 83.9764 110.705 83.877C110.628 83.9764 110.551 84.0736 110.475 84.168ZM92.3037 83.3193C92.3855 83.3823 92.4594 83.4477 92.5264 83.5146C92.7193 83.7076 92.966 83.8887 93.2646 84.0605C93.102 83.967 92.9544 83.8713 92.8232 83.7715L92.5293 83.5156C92.4619 83.4482 92.3863 83.3827 92.3037 83.3193ZM110.844 83.7002C110.956 83.5526 111.07 83.4002 111.185 83.2422C111.07 83.4002 110.956 83.5526 110.844 83.7002ZM76.3232 83.2207C76.2182 83.2817 76.1117 83.3441 76.0049 83.4102C76.1117 83.3441 76.2182 83.2817 76.3232 83.2207ZM92.1182 83.1895C92.0945 83.1741 92.0705 83.1587 92.0459 83.1436C92.0705 83.1587 92.0945 83.1741 92.1182 83.1895ZM76.7207 82.999C76.976 82.8636 77.2257 82.7432 77.4707 82.6396L77.459 82.6445C77.2177 82.747 76.9719 82.8657 76.7207 82.999ZM91.8242 83.0166C91.8012 83.0045 91.7776 82.9933 91.7539 82.9814C91.7775 82.9933 91.8013 83.0045 91.8242 83.0166ZM91.2324 82.7559C91.1412 82.7214 91.0465 82.6878 90.9482 82.6553C91.0465 82.6879 91.1412 82.7213 91.2324 82.7559ZM90.8027 82.6074C90.7088 82.5782 90.6116 82.551 90.5117 82.5234C90.6116 82.551 90.7088 82.5782 90.8027 82.6074ZM89.3057 82.2539C89.678 82.3202 90.0225 82.3939 90.3389 82.4756C90.0224 82.394 89.678 82.3202 89.3057 82.2539ZM89.0801 82.2168C88.9675 82.1982 88.8528 82.1784 88.7354 82.1611C88.8528 82.1784 88.9675 82.1982 89.0801 82.2168ZM114.48 77.002C113.98 78.6035 113.148 80.2886 111.963 82.1064C111.942 82.1384 111.92 82.1695 111.899 82.2012L111.965 82.1064C113.15 80.2887 113.98 78.6036 114.48 77.002ZM88.4648 82.124C88.332 82.1062 88.1962 82.0895 88.0576 82.0732C88.1962 82.0895 88.332 82.1062 88.4648 82.124ZM87.8438 82.0488C87.7065 82.0339 87.5665 82.0193 87.4238 82.0059C87.5665 82.0193 87.7065 82.0339 87.8438 82.0488ZM87.1025 81.9775C86.9719 81.9665 86.839 81.9561 86.7041 81.9463C86.839 81.9561 86.9719 81.9665 87.1025 81.9775ZM86.3926 81.9238C86.2123 81.9122 86.0283 81.9022 85.8408 81.8926C86.0283 81.9022 86.2123 81.9122 86.3926 81.9238ZM84.8066 81.8496C85.0882 81.858 85.3626 81.8694 85.6299 81.8818C85.3645 81.8695 85.0919 81.8589 84.8125 81.8506L84.8066 81.8496ZM61.1172 4.36621C63.7336 4.36625 66.4812 5.13628 69.0508 6.79883C73.5363 9.55308 76.041 12.8013 76.042 16.4697L76.0205 17.3877C75.9994 17.7201 75.9568 18.0749 75.8672 18.4336C75.819 18.6264 75.7885 18.8667 75.752 19.2139C75.7224 19.4944 75.6746 19.8385 75.6113 20.1963L75.6152 20.2002C75.4725 22.6256 75.0508 25.0368 74.4932 27.2979L73.9297 57.1562L74.3477 63.0117L74.3516 63.0508V63.0928L74.3262 64.0742C74.2774 65.0296 74.1665 65.9108 74.0615 66.751L74.0527 66.7979C73.81 68.2532 73.233 69.5094 72.3037 70.5449C71.4056 71.545 70.219 72.2826 68.8076 72.8193C66.6541 74.1021 64.7785 74.7744 63.2295 74.7744C61.6333 74.774 60.2576 74.2576 59.167 73.2119C58.2548 72.337 57.613 71.1444 57.1602 69.7295C55.556 69.4918 54.0029 69.3586 52.457 69.3076L50.6943 69.2812C48.277 69.2812 45.6908 69.1361 43.2256 68.7051C40.8891 68.4311 38.122 68.2959 35.0615 68.2959C30.2637 68.296 25.9954 68.911 22.3516 70.1055C22.2529 71.8111 21.8371 73.3047 21.0625 74.5479C20.1723 75.9752 18.8608 76.9855 17.2207 77.625C14.9768 78.8788 13.1014 79.5635 11.8223 79.5635C10.5529 79.5634 9.44867 79.1337 8.42871 78.3721L7.99805 78.0264L7.96387 77.9971C5.67219 75.8691 4.64768 72.5462 4.64746 68.4453V68.4062L4.65234 68.3682L4.78906 66.2979C4.37112 59.9893 4.22618 54.3768 4.22559 49.4609C3.94521 39.7884 3.66705 33.4099 3.26074 30.499C2.20519 25.362 1.39573 21.4483 0.849609 18.7529C0.576683 17.4059 0.366835 16.3539 0.226562 15.6035C0.156951 15.2311 0.105581 14.925 0.0683594 14.6904C0.0365096 14.4896 0 14.25 0 14.0752L0.0166016 13.5508C0.0905476 12.3311 0.44106 11.2015 1.31445 10.3281C2.0711 9.57159 2.93733 8.85147 4.19141 8.49316C5.24673 8.19167 6.19875 8.02836 7.1748 8.02832C9.62106 8.02839 12.0448 8.64317 14.4346 9.83789L14.4854 9.86328C16.7492 11.1367 18.5822 12.3392 19.8418 13.7559L19.8672 13.7852L20.2939 14.3828C21.1839 15.7437 21.6725 17.3576 21.6729 19.2871V19.3506C21.5318 21.8191 21.3899 23.8147 21.2285 25.3389C21.1596 25.9896 21.0785 26.5775 20.9941 27.0928L24.0068 26.9053L24.0586 26.9004C32.9195 26.7597 39.4998 26.482 43.8193 26.0645C47.0586 25.6427 49.2172 25.4923 50.2725 25.4922H50.3105L50.3486 25.4971C52.0807 25.6125 54.014 25.6218 56.1748 25.625C55.7892 22.6846 55.3478 19.7407 54.792 16.7559L54.1094 13.3242L54.0918 13.248L54.0879 13.1709L53.9473 11.1992L53.9424 11.1611V11.1182C53.9427 9.35069 54.4341 7.95948 55.3301 6.88379C56.1219 5.93375 57.0025 5.19475 58.2744 4.83105C59.3184 4.53277 60.2739 4.36644 61.1172 4.36621ZM99.958 78.9707C99.965 78.9955 99.9724 79.0202 99.9795 79.0449C99.9724 79.0202 99.965 78.9955 99.958 78.9707ZM11.8223 78.4443C11.8109 78.4443 11.7994 78.4434 11.7881 78.4434L11.8223 78.4453C11.8406 78.4453 11.8591 78.4418 11.8779 78.4414C11.8591 78.4418 11.8406 78.4443 11.8223 78.4443ZM12.0664 78.4316C12.1019 78.4287 12.1379 78.425 12.1748 78.4209C12.1379 78.425 12.1018 78.4288 12.0664 78.4316ZM10.8672 78.335C10.8763 78.3371 10.8854 78.3388 10.8945 78.3408C10.8854 78.3388 10.8763 78.3371 10.8672 78.335ZM12.7588 78.3193C12.7989 78.3101 12.8396 78.3004 12.8809 78.29C12.8396 78.3003 12.7989 78.3101 12.7588 78.3193ZM99.7568 78.1992C99.7656 78.2354 99.7743 78.2716 99.7832 78.3076C99.7743 78.2716 99.7656 78.2354 99.7568 78.1992ZM10.6816 78.2861C10.6973 78.2906 10.7128 78.2956 10.7285 78.2998C10.7128 78.2955 10.6973 78.2906 10.6816 78.2861ZM10.5186 78.2363C10.5264 78.2389 10.5342 78.2416 10.542 78.2441C10.5342 78.2416 10.5264 78.2389 10.5186 78.2363ZM10.3496 78.1768C10.3588 78.1802 10.3678 78.1841 10.377 78.1875C10.3678 78.1841 10.3588 78.1802 10.3496 78.1768ZM13.625 78.0684C13.6493 78.06 13.6737 78.0516 13.6982 78.043C13.6737 78.0516 13.6493 78.06 13.625 78.0684ZM9.6875 77.8643C9.69727 77.8698 9.70702 77.8754 9.7168 77.8809C9.70702 77.8754 9.69726 77.8698 9.6875 77.8643ZM9.35352 77.6572C9.36487 77.6648 9.37634 77.6722 9.3877 77.6797C9.37634 77.6722 9.36486 77.6648 9.35352 77.6572ZM99.5645 77.3301C99.5817 77.4151 99.5982 77.4998 99.6162 77.584C99.5982 77.4998 99.5816 77.4151 99.5645 77.3301ZM9.00781 77.4072C9.02809 77.4229 9.04807 77.4388 9.06836 77.4541C9.04808 77.4388 9.02808 77.4229 9.00781 77.4072ZM8.72363 77.1777C8.73702 77.1892 8.75126 77.1996 8.76465 77.2109C8.7511 77.1995 8.73718 77.1884 8.72363 77.1768C8.71276 77.1667 8.70222 77.1557 8.69141 77.1455C8.7024 77.1558 8.71258 77.1675 8.72363 77.1777ZM114.878 75.3896C114.939 75.052 114.986 74.7176 115.017 74.3857L115.019 74.3398C114.988 74.6868 114.941 75.0364 114.878 75.3896ZM8.39062 76.8467C8.4071 76.8641 8.4238 76.8812 8.44043 76.8984C8.4238 76.8812 8.4071 76.8641 8.39062 76.8467ZM99.4121 76.5039C99.4331 76.6291 99.454 76.7535 99.4766 76.877C99.454 76.7535 99.4331 76.6291 99.4121 76.5039ZM17.7783 76.1387C17.4575 76.3158 17.1157 76.4747 16.752 76.6133C16.7424 76.6187 16.7322 76.6235 16.7227 76.6289L16.752 76.6143C17.1158 76.4756 17.4573 76.3159 17.7783 76.1387ZM8.09082 76.5098C8.10478 76.5264 8.11873 76.5431 8.13281 76.5596C8.11872 76.5431 8.10478 76.5264 8.09082 76.5098ZM7.81738 76.1631C7.82548 76.174 7.83268 76.1855 7.84082 76.1963C7.83268 76.1855 7.82548 76.174 7.81738 76.1631ZM18.25 75.8535C18.1125 75.9441 17.9708 76.0309 17.8242 76.1133C17.9708 76.0309 18.1125 75.9441 18.25 75.8535ZM99.3115 75.8672C99.3192 75.9211 99.328 75.9747 99.3359 76.0283C99.328 75.9747 99.3192 75.9211 99.3115 75.8672ZM18.5312 75.6582C18.5712 75.6288 18.6103 75.5985 18.6494 75.5684C18.6103 75.5985 18.5712 75.6288 18.5312 75.6582ZM18.75 75.4893C18.7887 75.4582 18.8274 75.4274 18.8652 75.3955C18.8274 75.4274 18.7887 75.4582 18.75 75.4893ZM7.31055 75.3955C7.3249 75.4202 7.33994 75.4443 7.35449 75.4688C7.33993 75.4443 7.32491 75.4201 7.31055 75.3955ZM19.2764 75.0156C19.1681 75.1251 19.0554 75.2303 18.9385 75.332C19.0554 75.2303 19.1681 75.1251 19.2764 75.0156ZM99.1943 74.9307C99.2068 75.0453 99.2197 75.1592 99.2334 75.2725C99.2197 75.1592 99.2068 75.0453 99.1943 74.9307ZM7.09082 74.9941C7.09903 75.0101 7.10695 75.0261 7.11523 75.042C7.10695 75.0261 7.09903 75.0101 7.09082 74.9941ZM19.3125 74.9795C19.357 74.9337 19.4004 74.887 19.4434 74.8398C19.4004 74.887 19.357 74.9337 19.3125 74.9795ZM20.7939 72.4854C20.4979 73.3793 20.0626 74.146 19.4893 74.7891C20.0627 74.146 20.4978 73.3794 20.7939 72.4854ZM99.1094 74.0195C99.1184 74.1344 99.1285 74.2487 99.1387 74.3623C99.1285 74.2487 99.1184 74.1344 99.1094 74.0195ZM64.2129 73.5557C63.8612 73.6221 63.5337 73.6553 63.2305 73.6553C63.2164 73.6553 63.2024 73.6544 63.1885 73.6543L63.2295 73.6562C63.533 73.6562 63.8607 73.6223 64.2129 73.5557ZM62.2959 73.5791C62.3079 73.5811 62.32 73.583 62.332 73.585C62.32 73.583 62.3079 73.5811 62.2959 73.5791ZM62.0859 73.5391C62.1005 73.5422 62.1152 73.5449 62.1299 73.5479C62.1152 73.5449 62.1005 73.5422 62.0859 73.5391ZM99.0635 73.3613C99.067 73.4213 99.0724 73.4814 99.0762 73.541C99.0715 73.467 99.0657 73.3929 99.0615 73.3184L99.0635 73.3613ZM61.8691 73.4873C61.8883 73.4923 61.9075 73.4972 61.9268 73.502C61.9075 73.4972 61.8883 73.4923 61.8691 73.4873ZM65.0674 73.3408C64.9139 73.3882 64.7641 73.4294 64.6182 73.4658C64.7641 73.4293 64.9139 73.3883 65.0674 73.3408ZM61.6758 73.4316C61.6839 73.4342 61.692 73.437 61.7002 73.4395C61.692 73.437 61.6839 73.4342 61.6758 73.4316ZM120.837 46.1904C118.724 46.1904 116.893 46.3308 115.203 46.4717L114.921 56.0498L115.203 63.9365L114.921 70.8389L115.062 73.374C115.062 73.3942 115.061 73.4144 115.061 73.4346L115.063 73.374L114.923 70.8389L115.205 63.9385L114.923 56.0508L115.205 46.4736C116.895 46.3328 118.726 46.1924 120.838 46.1924L122.254 46.21C121.775 46.1978 121.302 46.1904 120.837 46.1904ZM61.4648 73.3613C61.479 73.3665 61.4935 73.3709 61.5078 73.376C61.4935 73.3709 61.479 73.3665 61.4648 73.3613ZM61.2812 73.29C61.2906 73.2939 61.3002 73.297 61.3096 73.3008C61.3002 73.297 61.2906 73.2939 61.2812 73.29ZM6.36035 73.1357C6.37633 73.1906 6.39451 73.2446 6.41113 73.2988C6.3945 73.2446 6.37634 73.1906 6.36035 73.1357ZM65.6504 73.1396C65.5112 73.192 65.3749 73.2401 65.2412 73.2842C65.3749 73.24 65.5112 73.1921 65.6504 73.1396ZM61.0918 73.2041C61.0993 73.2077 61.1067 73.2113 61.1143 73.2148C61.1067 73.2113 61.0993 73.2077 61.0918 73.2041ZM60.877 73.0947C60.9042 73.1096 60.9314 73.1244 60.959 73.1387C60.9314 73.1244 60.9042 73.1096 60.877 73.0947ZM60.71 72.998C60.7302 73.0103 60.7501 73.0232 60.7705 73.0352C60.7501 73.0232 60.7302 73.0103 60.71 72.998ZM60.5449 72.8936C60.5576 72.9021 60.5702 72.9106 60.583 72.9189C60.5703 72.9106 60.5576 72.9021 60.5449 72.8936ZM60.3594 72.7617C60.3786 72.7761 60.3976 72.7907 60.417 72.8047C60.3976 72.7906 60.3786 72.7761 60.3594 72.7617ZM6.20996 72.5654C6.22864 72.643 6.24869 72.7196 6.26855 72.7959C6.24868 72.7196 6.22865 72.643 6.20996 72.5654ZM60.2012 72.6377C60.2169 72.6506 60.2322 72.6641 60.248 72.6768C60.2322 72.6641 60.2169 72.6506 60.2012 72.6377ZM70.9082 70.3477C70.2088 70.9512 69.3401 71.4413 68.3008 71.8242C67.8514 72.0938 67.4209 72.3308 67.0098 72.5381C67.4206 72.331 67.8509 72.0945 68.2998 71.8252C69.3395 71.4421 70.2086 70.9518 70.9082 70.3477ZM59.3232 71.6943C59.5424 71.9969 59.7809 72.2648 60.0391 72.498C59.7811 72.2646 59.5422 71.997 59.3232 71.6943ZM6.09277 72.0303C6.1072 72.1027 6.1223 72.1746 6.1377 72.2461C6.12229 72.1746 6.10721 72.1027 6.09277 72.0303ZM21.043 71.5527C21.0599 71.4709 21.0769 71.3884 21.0918 71.3047C21.0769 71.3883 21.0599 71.4709 21.043 71.5527ZM5.98242 71.4072C5.9978 71.506 6.01324 71.6041 6.03027 71.7012C6.01322 71.6041 5.99781 71.506 5.98242 71.4072ZM59.0781 71.3271C59.1041 71.3691 59.1306 71.4104 59.1572 71.4512C59.1306 71.4103 59.1041 71.3691 59.0781 71.3271ZM21.2441 69.875C21.2226 70.3616 21.1755 70.8235 21.0996 71.2607C21.1697 70.8567 21.2175 70.4315 21.2412 69.9854L21.2441 69.875ZM58.5186 70.2275C58.6727 70.5966 58.8426 70.9366 59.0293 71.2471C58.8427 70.9365 58.6726 70.5966 58.5186 70.2275ZM5.90918 70.8818C5.91764 70.9509 5.92535 71.0196 5.93457 71.0879C5.92534 71.0196 5.91765 70.9509 5.90918 70.8818ZM58.3164 69.7012C58.3346 69.7527 58.3524 69.8039 58.3711 69.8545C58.3524 69.8039 58.3346 69.7527 58.3164 69.7012ZM43.3711 67.5996C45.7648 68.022 48.3005 68.163 50.6943 68.1631C53.0883 68.1631 55.4839 68.3042 58.0186 68.7266C58.0713 68.9286 58.1282 69.1245 58.1875 69.3145C58.1281 69.1243 58.0723 68.9279 58.0195 68.7256C55.4843 68.303 53.0897 68.1621 50.6953 68.1621C48.301 68.1621 45.7654 68.0212 43.3711 67.5986C43.2297 67.582 43.0867 67.5674 42.9424 67.5518C43.0867 67.5674 43.2297 67.583 43.3711 67.5996ZM35.0615 67.1768C29.8503 67.1768 25.2024 67.8806 21.2588 69.2891L21.2578 69.29C25.2012 67.8817 29.8507 67.1778 35.0615 67.1777L37.3262 67.2021C36.5903 67.1846 35.8347 67.1768 35.0615 67.1768ZM73.1455 64.8613C73.1559 64.7462 73.165 64.6303 73.1738 64.5137C73.1651 64.6304 73.1558 64.7462 73.1455 64.8613ZM5.77734 64.2568C5.80055 64.6537 5.82611 65.0534 5.85156 65.4561C5.82609 65.0534 5.80058 64.6537 5.77734 64.2568ZM73.21 63.9365C73.2045 64.0531 73.1968 64.1685 73.1895 64.2832C73.1951 64.1958 73.2035 64.108 73.208 64.0195L73.21 63.9365ZM5.66406 62.1621C5.68595 62.5982 5.70882 63.038 5.7334 63.4814C5.70878 63.038 5.686 62.5982 5.66406 62.1621ZM5.56836 60.083C5.58742 60.5374 5.60697 60.9961 5.62891 61.459C5.6069 60.9961 5.58749 60.5374 5.56836 60.083ZM5.47656 57.6338C5.48672 57.949 5.49924 58.2663 5.51074 58.5859C5.49919 58.2663 5.48677 57.949 5.47656 57.6338ZM56.6055 40.498C53.4181 41.0608 49.5984 41.4175 45.0742 41.6641C45.0662 41.6654 45.0577 41.671 45.0566 41.6719C44.9955 41.6822 44.9339 41.6883 44.8818 41.6934C44.7749 41.7037 44.6422 41.7116 44.4932 41.7188C44.191 41.7333 43.7659 41.7468 43.2256 41.7578C42.1423 41.78 40.5566 41.7998 38.4717 41.8174C34.4654 41.8512 28.6909 41.8811 20.998 41.9453L21.3652 56.0127C25.2308 56.9768 29.0989 57.4677 33.0898 57.4678C35.9714 57.4677 38.8599 57.1908 41.8945 56.6396C44.777 56.0906 49.6952 55.5553 56.4824 55.0186L56.6055 40.498ZM39.8027 58.1084C39.6493 58.1297 39.4957 58.148 39.3428 58.168C40.2241 58.0532 41.1141 57.9174 42.0156 57.7549L39.8027 58.1084ZM5.43066 56.0078C5.43432 56.1496 5.43748 56.2919 5.44141 56.4346C5.43747 56.2919 5.43434 56.1496 5.43066 56.0078ZM57.7373 39.1484C54.3571 39.8526 50.1319 40.275 44.9209 40.5566C44.9178 40.5582 44.9132 40.5581 44.9082 40.5596L44.9199 40.5586C50.1301 40.277 54.3564 39.8534 57.7363 39.1494L57.5957 56.0498H57.5967L57.7373 39.1484ZM127.599 46.4736L131.965 46.6143C132.612 46.6142 133.209 46.5956 133.759 46.5645C133.209 46.5954 132.611 46.6133 131.964 46.6133L127.598 46.4717C126.85 46.4277 126.116 46.3854 125.396 46.3457C126.117 46.386 126.851 46.4297 127.599 46.4736ZM133.957 46.5518C134.145 46.5397 134.327 46.5262 134.504 46.5107C134.327 46.5261 134.145 46.5397 133.957 46.5518ZM134.755 46.4863C134.923 46.4696 135.086 46.4514 135.243 46.4316C135.086 46.4513 134.923 46.4697 134.755 46.4863ZM135.465 46.4023C135.59 46.385 135.71 46.3659 135.828 46.3467C135.71 46.3658 135.59 46.3851 135.465 46.4023ZM136.675 46.1826C136.686 46.1801 136.696 46.1774 136.707 46.1748C136.696 46.1774 136.686 46.1801 136.675 46.1826ZM5.08008 41.457C5.1344 42.879 5.18893 44.4137 5.24121 46.0596C5.18894 44.4137 5.13438 42.879 5.08008 41.457ZM137.598 45.9092C137.58 45.9158 137.562 45.9212 137.544 45.9277L137.599 45.9102C137.65 45.8898 137.698 45.8653 137.748 45.8438C137.698 45.8653 137.649 45.8888 137.598 45.9092ZM138.658 45.3428C138.397 45.5243 138.112 45.6828 137.806 45.8193C138.112 45.6828 138.396 45.5243 138.658 45.3428ZM138.928 45.1406C138.862 45.1939 138.794 45.2459 138.725 45.2959C138.794 45.2459 138.862 45.1939 138.928 45.1406ZM139.233 44.8721C139.17 44.9333 139.104 44.9922 139.037 45.0498C139.104 44.9922 139.17 44.9333 139.233 44.8721ZM139.304 44.8027C139.339 44.7673 139.373 44.731 139.407 44.6943C139.373 44.731 139.339 44.7673 139.304 44.8027ZM139.648 44.4121C139.595 44.4797 139.54 44.5452 139.483 44.6094C139.54 44.5452 139.595 44.4798 139.648 44.4121ZM139.86 44.1201C139.814 44.1899 139.766 44.2577 139.716 44.3242C139.766 44.2577 139.814 44.1899 139.86 44.1201ZM140.351 43.1768C140.232 43.4747 140.093 43.751 139.933 44.0068C140.093 43.7509 140.232 43.4748 140.351 43.1768ZM140.792 41.2246C140.729 41.9014 140.6 42.5087 140.4 43.0488C140.589 42.5368 140.721 41.9655 140.787 41.3311L140.792 41.2246ZM38.3008 40.6982C34.1305 40.733 27.9861 40.7684 19.8506 40.8379V40.8389C27.9858 40.7693 34.1303 40.733 38.3008 40.6982ZM43.6914 40.6279C43.1009 40.6432 42.2987 40.6568 41.2842 40.6689C42.2987 40.6568 43.1008 40.6432 43.6914 40.6279ZM44.5 40.5986C44.3971 40.604 44.2757 40.6093 44.1357 40.6143C44.2483 40.6103 44.3489 40.6097 44.4375 40.6055L44.5 40.5986ZM139.786 36.7529C140.486 37.6846 140.837 38.8582 140.837 40.2744C140.837 40.2883 140.836 40.3026 140.836 40.3164L140.838 40.2764C140.838 38.8593 140.487 37.6849 139.786 36.7529ZM116.029 6.88184C115.985 8.008 115.851 9.11628 115.625 10.1338C115.203 11.4013 115.062 12.8096 115.062 14.0771C115.202 15.9081 115.203 23.5146 115.344 36.6133L115.345 36.6123C115.204 23.5151 115.204 15.9061 115.063 14.0752C115.064 12.8082 115.205 11.3987 115.627 10.1318C115.838 9.1812 115.972 8.15111 116.024 7.10156L116.029 6.88184ZM4.49316 31.4004C4.50515 31.5146 4.51656 31.6322 4.52832 31.7529C4.51656 31.6322 4.50515 31.5146 4.49316 31.4004ZM19.5938 28.2246C19.7144 27.8739 19.8268 27.3699 19.9277 26.707V26.7061C19.8266 27.3695 19.7146 27.8739 19.5938 28.2246ZM61.1172 5.48438C60.4133 5.4846 59.5671 5.62578 58.582 5.90723C57.5968 6.18898 56.8914 6.75213 56.1875 7.59668C55.4835 8.44143 55.0609 9.56979 55.0605 11.1182L55.2012 13.0898C56.1869 17.7368 56.8908 22.2468 57.4541 26.7529L57.4561 26.7539C56.8927 22.2469 56.1881 17.7397 55.2021 13.0918L55.0615 11.1201C55.0615 9.57081 55.4842 8.44371 56.1885 7.59863C56.8927 6.75359 57.5971 6.18989 58.583 5.9082C59.5688 5.62657 60.414 5.48633 61.1182 5.48633C63.5125 5.48636 66.0481 6.18999 68.4424 7.73926C68.6895 7.89071 68.9294 8.04305 69.1621 8.19629C68.9288 8.04264 68.6882 7.88915 68.4404 7.7373C66.0469 6.18921 63.5106 5.48442 61.1172 5.48438ZM20.2812 17.0771C20.4054 17.5469 20.4903 18.0459 20.5293 18.5781C20.4904 18.046 20.4053 17.547 20.2812 17.0771ZM7.1748 9.14648C6.32991 9.14652 5.48374 9.28674 4.49805 9.56836C3.51267 9.84995 2.80837 10.4144 2.10449 11.1182C1.81686 11.4058 1.60058 11.7411 1.44434 12.123C1.60052 11.742 1.81628 11.4074 2.10352 11.1201C2.80774 10.4159 3.51213 9.852 4.49805 9.57031C5.48383 9.28866 6.32886 9.14847 7.17383 9.14844C9.42729 9.14844 11.6811 9.71119 13.9346 10.8379C16.188 12.1054 17.8781 13.2325 19.0049 14.5C19.5202 15.1626 19.9193 15.9026 20.1836 16.7393C19.9193 15.9018 19.5204 15.1609 19.0049 14.498C17.8781 13.2311 16.1871 12.103 13.9346 10.8359C11.6817 9.70974 9.4277 9.14655 7.1748 9.14648ZM93.2969 13.4619C93.3121 13.4805 93.3273 13.4991 93.3428 13.5176C93.3273 13.4991 93.3121 13.4805 93.2969 13.4619ZM92.2266 11.8086C92.243 11.8426 92.2603 11.8763 92.2773 11.9102C92.2603 11.8762 92.243 11.8426 92.2266 11.8086ZM92.0654 11.4512C92.0752 11.4744 92.0857 11.4973 92.0957 11.5205C92.0857 11.4973 92.0751 11.4744 92.0654 11.4512ZM91.9141 11.0537C91.9308 11.1017 91.948 11.1495 91.9658 11.1973C91.948 11.1495 91.9308 11.1017 91.9141 11.0537ZM91.792 10.665C91.8083 10.7228 91.8249 10.7804 91.8428 10.8379C91.8249 10.7804 91.8083 10.7228 91.792 10.665ZM71.0615 9.59863C71.4415 9.91552 71.7931 10.2355 72.1162 10.5586C71.7931 10.2354 71.4415 9.9156 71.0615 9.59863ZM91.6924 10.2637C91.7067 10.3298 91.72 10.3961 91.7363 10.4619C91.72 10.3961 91.7067 10.3298 91.6924 10.2637ZM91.6191 9.8623C91.6302 9.93489 91.6389 10.0079 91.6523 10.0801C91.6389 10.0078 91.6302 9.93489 91.6191 9.8623ZM69.3955 8.35352C69.8661 8.67128 70.3063 8.99243 70.7158 9.31738C70.3063 8.99233 69.8661 8.67135 69.3955 8.35352ZM98.8672 1.11816C97.1714 1.11816 95.7753 1.41838 94.6738 2.02441C95.7749 1.41951 97.1698 1.12017 98.8643 1.12012C103.09 1.54265 106.048 1.96472 107.879 2.66895C108.301 2.66899 109.428 2.95059 111.259 3.37305C114.217 4.07728 115.766 4.92304 116.048 6.0498C116.048 6.1045 116.046 6.15918 116.046 6.21387L116.05 6.04785C115.767 4.92184 114.217 4.07599 111.261 3.37207C109.432 2.95002 108.304 2.6676 107.881 2.66699C106.05 1.96289 103.092 1.54063 98.8672 1.11816ZM46.9873 112.021C46.969 112.179 46.9534 112.337 46.9404 112.495C46.9534 112.337 46.969 112.179 46.9873 112.021ZM92.3525 95.5117C92.1701 95.414 91.9886 95.322 91.8086 95.2344C91.9886 95.3219 92.1701 95.4141 92.3525 95.5117ZM109.053 85.6865C109.14 85.6085 109.229 85.5271 109.318 85.4414C109.229 85.5271 109.14 85.6085 109.053 85.6865ZM74.2861 84.625C74.1768 84.7107 74.0661 84.7978 73.9551 84.8877C74.0661 84.7978 74.1768 84.7107 74.2861 84.625ZM75.9521 83.4434C75.8335 83.5175 75.7137 83.5945 75.5928 83.6748C75.7137 83.5946 75.8335 83.5175 75.9521 83.4434ZM76.7207 82.999C76.6107 83.0574 76.4997 83.1184 76.3877 83.1826C76.4997 83.1185 76.6107 83.0574 76.7207 82.999ZM114.504 76.9229C114.55 76.7723 114.593 76.6227 114.634 76.4736C114.593 76.6227 114.55 76.7724 114.504 76.9229ZM114.646 76.4229C114.689 76.2648 114.728 76.1078 114.764 75.9512C114.728 76.1077 114.689 76.2648 114.646 76.4229ZM114.773 75.9072C114.811 75.7414 114.844 75.5764 114.874 75.4121C114.844 75.5764 114.811 75.7414 114.773 75.9072ZM18.2705 75.8408C18.3347 75.7982 18.3978 75.7544 18.46 75.71C18.3978 75.7544 18.3347 75.7982 18.2705 75.8408ZM20.8115 72.4336C20.8365 72.3563 20.8609 72.2784 20.8838 72.1992C20.8609 72.2783 20.8365 72.3564 20.8115 72.4336ZM59.209 71.5303C59.2466 71.586 59.2845 71.6408 59.3232 71.6943C59.2845 71.6408 59.2465 71.586 59.209 71.5303ZM20.9131 72.0986C20.9323 72.0288 20.9501 71.958 20.9678 71.8867C20.9501 71.958 20.9323 72.0288 20.9131 72.0986ZM20.9775 71.8477C20.9964 71.77 21.0143 71.6916 21.0312 71.6123C21.0143 71.6916 20.9964 71.77 20.9775 71.8477ZM73.0752 65.5469C73.0976 65.3486 73.1187 65.149 73.1377 64.9473C73.119 65.149 73.0973 65.3485 73.0752 65.5469Z" fill="black"/>
<path d="M383.808 81.1636C384.249 81.1636 384.67 81.1734 385.072 81.188C386.926 81.2396 388.51 81.3753 389.805 81.603C391.232 81.854 392.479 82.2425 393.321 82.8882L393.658 83.1821C393.995 83.5183 394.704 83.894 395.921 84.2368L397.312 84.5649L397.346 84.5698L397.38 84.5825C399.45 85.1346 402.53 86.9295 406.386 89.9214L408.084 91.2739L408.114 91.3003C412.764 95.3862 415.873 98.7516 417.247 101.5C418.365 103.598 418.776 106.792 418.776 110.873L418.72 113.13C418.465 118.257 417.303 122.413 415.045 125.601C411.505 130.616 406.638 132.704 402.225 135.444C400.206 136.697 400.082 136.25 397.576 138.035L397.572 138.039C393.526 140.62 391.341 142.805 377.94 141.091L377.936 141.087C369.489 140.62 365.119 138.435 361.457 137.569C359.799 137.569 358.012 136.674 356.754 136.467C355.533 136.267 354.475 135.95 353.766 135.444L353.753 135.435C348.527 131.591 346.113 124.364 346.113 114.112C346.114 111.565 346.741 109.12 347.951 106.775C348.656 105.187 349.706 103.656 351.237 102.104C352.91 100.246 354.974 98.4573 357.406 96.7378C359.125 95.4491 360.7 94.447 362.238 93.4683L365.269 91.3813C368.035 89.4318 370.011 87.8811 371.2 86.5923L371.256 86.5366C373.801 84.1334 376.073 82.4196 378.17 81.7739C379.607 81.2994 381.299 81.1636 383.292 81.1636C383.429 81.1636 383.564 81.1648 383.698 81.1655C383.735 81.165 383.771 81.1636 383.808 81.1636ZM387.658 95.6528C386.57 95.6528 385.095 96.062 383.206 96.9976C381.335 97.925 379.141 99.3281 376.638 101.206L376.612 101.223L376.583 101.245C368.383 106.665 363.742 112.359 362.558 118.41L362.554 118.415C362.401 119.177 362.294 119.604 362.294 120.168C362.294 121.627 362.646 122.482 363.148 122.985C363.483 123.32 365.584 124.258 367.362 124.839C368.731 124.87 369.968 125.161 371.724 125.456C373.909 125.456 374.888 126.627 377.986 126.486C381.085 126.345 384.345 126.16 387.021 125.456C388.288 125.174 388.368 125.088 391.391 123.27C393.168 122.201 395.03 120.441 398.128 118.892L399.358 118.481L399.322 118.436L399.416 118.41C400.683 118.108 401.652 116.23 402.225 115.431C402.806 114.619 403.159 113.46 403.159 111.859C403.159 110.918 402.923 109.931 402.515 108.705C401.458 105.666 399.599 102.994 397.027 100.557C393.307 97.1165 390.193 95.6537 387.658 95.6528ZM403.665 108.624C403.651 108.573 403.638 108.521 403.621 108.469C403.607 108.43 403.591 108.391 403.577 108.351C403.608 108.442 403.636 108.534 403.665 108.624ZM415.595 100.864C415.862 101.308 416.097 101.73 416.297 102.131C416.465 102.443 416.614 102.788 416.75 103.166C416.603 102.736 416.436 102.347 416.249 102C416.067 101.635 415.847 101.258 415.595 100.864Z" fill="black"/>
<defs>
<filter id="filter0_g_3_3657" x="586.811" y="48.7823" width="36.3553" height="81.1229" filterUnits="userSpaceOnUse" color-interpolation-filters="sRGB">
<feFlood flood-opacity="0" result="BackgroundImageFix"/>
<feBlend mode="normal" in="SourceGraphic" in2="BackgroundImageFix" result="shape"/>
<feTurbulence type="fractalNoise" baseFrequency="0.27874231338500977 0.27874231338500977" numOctaves="3" seed="955" />
<feDisplacementMap in="shape" scale="2.3319025039672852" xChannelSelector="R" yChannelSelector="G" result="displacedImage" width="100%" height="100%" />
<feMerge result="effect1_texture_3_3657">
<feMergeNode in="displacedImage"/>
</feMerge>
</filter>
<filter id="filter1_g_3_3657" x="592.27" y="55.2277" width="25.2952" height="34.0639" filterUnits="userSpaceOnUse" color-interpolation-filters="sRGB">
<feFlood flood-opacity="0" result="BackgroundImageFix"/>
<feBlend mode="normal" in="SourceGraphic" in2="BackgroundImageFix" result="shape"/>
<feTurbulence type="fractalNoise" baseFrequency="0.22613763809204102 0.22613763809204102" numOctaves="3" seed="9863" />
<feDisplacementMap in="shape" scale="1.9942735433578491" xChannelSelector="R" yChannelSelector="G" result="displacedImage" width="100%" height="100%" />
<feMerge result="effect1_texture_3_3657">
<feMergeNode in="displacedImage"/>
</feMerge>
</filter>
<filter id="filter2_g_3_3657" x="592.266" y="91.2096" width="25.5873" height="33.8494" filterUnits="userSpaceOnUse" color-interpolation-filters="sRGB">
<feFlood flood-opacity="0" result="BackgroundImageFix"/>
<feBlend mode="normal" in="SourceGraphic" in2="BackgroundImageFix" result="shape"/>
<feTurbulence type="fractalNoise" baseFrequency="0.22757048904895782 0.22757048904895782" numOctaves="3" seed="9863" />
<feDisplacementMap in="shape" scale="1.9817173480987549" xChannelSelector="R" yChannelSelector="G" result="displacedImage" width="100%" height="100%" />
<feMerge result="effect1_texture_3_3657">
<feMergeNode in="displacedImage"/>
</feMerge>
</filter>
</defs>
</svg>
