<svg width="3153" height="222" viewBox="0 0 3153 222" fill="none" xmlns="http://www.w3.org/2000/svg">
<path d="M2863.9 144.252V90.5851L3050.03 22.9583V184.89L2863.9 144.252Z" fill="url(#paint0_linear_10_3906)"/>
<path d="M2851.81 143.942V90.1198L2780.46 22.9583V184.27L2851.81 143.942Z" fill="url(#paint1_linear_10_3906)"/>
<ellipse cx="253.913" cy="116.941" rx="193.096" ry="54.6928" transform="rotate(-9.81685 253.913 116.941)" fill="#034EA2"/>
<rect x="2.96872" y="2.96872" width="485.199" height="215.866" rx="12.8744" stroke="black" stroke-opacity="0.25" stroke-width="5.93744"/>
<path d="M292.533 97.2532H282.606L282.761 127.344C282.658 130.653 284.622 137.581 296.411 137.736C307.583 137.883 310.37 130.963 310.37 127.344V97.2532H300.288V127.344C300.133 128.481 299.14 130.725 296.411 130.601C293.681 130.477 292.791 128.378 292.688 127.344L292.533 97.2532Z" fill="white"/>
<rect x="541.636" y="2.96872" width="477.278" height="215.866" rx="12.8744" stroke="black" stroke-opacity="0.25" stroke-width="5.93744"/>
<rect x="1072.38" y="2.96872" width="477.278" height="215.866" rx="12.8744" stroke="black" stroke-opacity="0.25" stroke-width="5.93744"/>
<rect x="1603.12" y="2.96872" width="485.199" height="215.866" rx="12.8744" stroke="black" stroke-opacity="0.25" stroke-width="5.93744"/>
<rect x="2133.87" y="2.96872" width="485.199" height="215.866" rx="12.8744" stroke="black" stroke-opacity="0.25" stroke-width="5.93744"/>
<rect x="2664.61" y="2.96872" width="485.199" height="215.866" rx="12.8744" stroke="black" stroke-opacity="0.25" stroke-width="5.93744"/>
<g clip-path="url(#clip0_10_3906)">
<path d="M663.634 62.03H641.417V160.936H663.634V62.03Z" fill="#009DAD"/>
<path d="M638.028 62.03H615.811V160.936H638.028V62.03Z" fill="#D6D4CC"/>
<path d="M612.405 62.0286H590.188V160.935H612.405V62.0286Z" fill="#009DAD"/>
<path d="M751.501 95.6442C750.505 91.8439 747.679 91.0447 745.473 91.0447H742.402C740.197 91.0447 737.371 91.8439 736.374 95.6442L727.242 130.597H734.316L743.938 93.7848L753.56 130.597H760.633L751.501 95.6442Z" fill="#121212"/>
<path d="M709.319 114.874C714.611 113.471 718.156 109.117 718.156 103.212C718.156 95.9541 712.798 91.0447 705.447 91.0447H688.408V130.597H695.286V97.6667H705.365C709.074 97.6667 711.279 99.7381 711.279 103.196C711.279 106.67 709.074 108.725 705.365 108.725H696.25L713.288 130.581H721.554L709.302 114.858L709.319 114.874Z" fill="#121212"/>
<path d="M869.344 91.0447H862.466V130.597H869.344V91.0447Z" fill="#121212"/>
<path d="M902.708 95.6442C901.711 91.8439 898.885 91.0447 896.68 91.0447H893.609C891.403 91.0447 888.577 91.8439 887.581 95.6442L878.449 130.597H885.522L895.144 93.7848L904.766 130.597H911.84L902.708 95.6442Z" fill="#121212"/>
<path d="M769.759 125.15C769.759 128.151 772.193 130.597 775.199 130.597H796.501V123.975H776.637V113.504H795.848V107.257H776.637V97.6667H796.501V91.0447H769.759V125.15Z" fill="#121212"/>
<path d="M947.709 91.0447V123.975H946.271L935.783 95.6442C934.297 91.4524 932.01 91.0447 929.804 91.0447H920.95V130.597H927.828V97.6667H929.265L939.753 125.998C941.24 130.19 943.527 130.597 945.732 130.597H954.586V91.0447H947.709Z" fill="#121212"/>
<path d="M841.549 91.0447C839.344 91.0447 837.024 91.6482 835.815 95.6442L829.215 116.31L822.615 95.6442C821.407 91.6482 819.087 91.0447 816.898 91.0447H808.207V130.597H815.085V97.6667H816.31L822.191 116.081C822.517 117.19 823.694 119.278 825.948 119.278H832.548C834.802 119.278 835.962 117.19 836.289 116.081L842.17 97.6667H843.379V130.597H850.256V91.0447H841.565H841.549Z" fill="#121212"/>
</g>
<path d="M330.844 136.03H321.228V97.2532H335.808L345.114 128.275L344.649 97.2532H354.265V136.03H340.306L330.379 104.233L330.844 136.03Z" fill="white"/>
<path d="M378.618 120.21H382.651V126.724C382.651 127.81 381.844 130.012 378.618 130.136C375.392 130.261 374.481 127.913 374.429 126.724V106.715C374.429 105.94 374.895 103.303 378.618 103.303C381.599 103.303 382.444 105.526 382.495 106.715V109.662L392.577 109.662C392.732 101.287 390.25 96.4781 378.618 96.168C367.071 95.8601 364.503 103.303 364.658 107.181V125.949C364.658 131.222 367.202 136.899 378.618 137.271C390.034 137.644 392.681 129.878 392.577 125.949V114.471H378.618V120.21Z" fill="white"/>
<path d="M201.95 136.495H192.023L192.954 97.0979H208.93L214.048 127.189L218.857 97.0979H234.988L235.764 136.495H225.837L225.526 101.131L218.857 136.495H208.93L202.26 101.131L201.95 136.495Z" fill="white"/>
<path d="M1838.02 146.267H1827.32V147.974H1835.85V149.214H1827.17V154.023H1838.49V152.161H1829.34V150.765H1838.02V146.267Z" fill="black"/>
<path d="M1805.29 149.99V147.974H1816.31V149.99H1805.29Z" fill="black"/>
<path d="M1816.93 136.806H1819.1V153.248H1816.93V136.806Z" fill="black"/>
<path d="M1786.22 136.961V142.39H1782.49V144.251H1786.22V153.247H1788.54V136.961H1786.22Z" fill="black"/>
<g clip-path="url(#clip1_10_3906)">
<path d="M2245.86 164.473C2270.56 164.473 2290.57 144.504 2290.7 119.85C2290.66 126.365 2288.14 132.88 2283.16 137.861C2273.11 147.91 2256.76 147.91 2246.71 137.861C2236.67 127.813 2236.67 111.505 2246.71 101.414C2256.76 91.3652 2273.07 91.3652 2283.16 101.414C2288.19 106.438 2290.7 112.995 2290.7 119.51V61.0916C2267.28 50.7875 2238.92 55.2157 2219.72 74.4188C2206.95 87.235 2200.73 104.054 2201.03 120.787C2201.62 145.015 2221.47 164.473 2245.86 164.473Z" fill="url(#paint2_linear_10_3906)"/>
<path d="M2296.92 39.6335C2293.47 41.4218 2290.71 45.5946 2290.71 49.0435V119.639C2290.71 144.378 2270.61 164.475 2245.87 164.475C2221.13 164.475 2201.67 145.016 2201.03 120.789C2201.63 155.533 2230.03 183.55 2264.9 183.55C2299.77 183.55 2328.81 154.937 2328.81 119.639V23.3684L2296.88 39.6335H2296.92Z" fill="url(#paint3_linear_10_3906)"/>
<path d="M2399.15 77.8274V87.578H2391.02V92.9003H2399.15V132.328H2405.97V77.87H2399.15V77.8274ZM2381.57 83.9587V77.8274H2374.76V83.9587C2374.76 93.1132 2367.48 105.035 2360.88 110.698L2366.37 113.466C2371.14 108.953 2375.4 103.119 2378.21 97.2008C2380.97 103.119 2385.23 108.953 2390 113.466L2395.49 110.698C2388.85 105.035 2381.61 93.0706 2381.61 83.9587H2381.57Z" fill="#727171"/>
<path d="M2508.12 105.759V100.437H2463.62V105.759H2482.49V109.549C2476.91 110.954 2472.78 115.723 2472.78 121.386C2472.78 128.156 2478.65 133.648 2485.89 133.648C2493.13 133.648 2498.96 128.156 2498.96 121.386C2498.96 115.723 2494.83 110.954 2489.26 109.549V105.759H2508.08H2508.12ZM2492.24 121.386C2492.24 124.877 2489.38 127.687 2485.89 127.687C2482.4 127.687 2479.55 124.877 2479.55 121.386C2479.55 117.894 2482.36 115.084 2485.89 115.084C2489.43 115.084 2492.24 117.894 2492.24 121.386ZM2464.94 94.6886L2469.54 98.7762C2476.31 95.8382 2482.78 90.0049 2485.89 86.3857C2489 90.0049 2495.47 95.8382 2502.24 98.7762L2506.84 94.6886C2500.41 91.7081 2494.58 87.0244 2491.68 83.1497H2505.69V77.8274H2466.14V83.1497H2480.14C2477.25 87.0244 2471.42 91.7081 2464.99 94.6886H2464.94Z" fill="#727171"/>
<path d="M2553.76 104.993V82.3833C2553.76 79.8712 2551.71 77.8274 2549.2 77.8274H2515.48V83.1498H2546.94V104.993H2511.77V110.315H2531.23V132.328H2538.04V110.315H2557.5V104.993H2553.76Z" fill="#727171"/>
<path d="M2435.73 101.414C2443.44 101.414 2449.65 95.5809 2449.65 88.3851C2449.65 81.1893 2443.44 75.356 2435.73 75.356C2428.02 75.356 2421.81 81.1893 2421.81 88.3851C2421.81 95.5809 2428.07 101.414 2435.73 101.414ZM2435.73 81.2744C2439.65 81.2744 2442.84 84.4678 2442.84 88.3851C2442.84 92.3023 2439.65 95.4958 2435.73 95.4958C2431.81 95.4958 2428.62 92.3023 2428.62 88.3851C2428.62 84.4678 2431.81 81.2744 2435.73 81.2744Z" fill="#727171"/>
<path d="M2458.59 108.481V103.159H2412.86V108.481H2432.32V111.291H2416.53V116.614H2448.16V119.466H2416.53V127.769C2416.53 130.281 2418.57 132.325 2421.08 132.325H2454.93V127.003H2423.34V124.15H2454.93V115.847C2454.93 113.335 2452.89 111.291 2450.38 111.291H2439.13V108.481H2458.59Z" fill="#727171"/>
</g>
<path d="M162.863 136.495H152.16L159.45 97.0979H177.132L184.267 136.495H173.72L168.291 100.665L162.863 136.495Z" fill="white"/>
<path d="M1789.47 145.902V144.096H1805.3V145.957L1798.47 145.902V146.888H1802.97V151.386H1793.66V152.006H1802.97V153.868H1791.65V149.68H1800.8V148.749H1791.65V146.888H1796.3V145.957L1789.47 145.902Z" fill="black"/>
<path d="M1858.19 150.61V155.419H1842.68V159.451H1878.66V155.419H1863.31V150.61H1858.19Z" fill="black"/>
<path d="M1908.13 137.271H1883.78V141.459H1903.32V145.958H1883.78V153.558C1883.78 157.156 1886.99 158.573 1888.59 158.831H1893.55V164.105H1878.2V168.138H1914.03V164.105H1898.67V158.831H1909.06V154.488H1890.14C1889.15 154.24 1888.9 153.558 1888.9 153.248V149.99H1908.13V137.271Z" fill="black"/>
<path d="M144.87 108.576H135.098V105.63C134.85 102.9 132.358 102.424 131.221 102.528C127.622 102.652 127.446 105.682 127.808 107.181C128.056 108.67 130.703 110.49 131.996 111.214L137.89 114.471C144.591 117.325 145.801 122.382 145.801 124.553V127.035C145.801 136.651 136.96 138.099 132.461 138.047H129.98C119.805 138.047 117.364 131.223 117.416 127.81V123.622H127.963V127.81C128.211 130.168 130.238 130.861 131.221 130.913H132.461C135.315 130.664 135.925 128.431 135.874 127.345V126.414C135.874 124.677 133.599 122.795 132.461 122.071L128.894 120.055C125.668 118.194 123.517 116.798 122.845 116.332C118.129 113.106 117.364 108.887 117.571 107.181C117.695 98.1228 125.378 95.961 129.204 96.0124H132.927C142.543 95.7023 144.87 102.528 144.87 104.233V108.576Z" fill="white"/>
<path d="M272.525 108.73L262.753 108.575V105.484C262.442 102.991 260.167 102.733 259.03 102.836C256.083 102.836 255.411 105.525 255.773 107.024C256.083 109.04 258.358 110.344 259.651 111.068L265.545 114.325C272.246 117.179 273.456 122.236 273.456 124.407V126.889C273.456 136.505 264.614 137.953 260.116 137.901H257.635C247.707 137.115 245.38 130.767 245.38 127.808V123.476H255.773V127.653C256.021 130.011 257.893 130.715 258.875 130.767H260.116C262.97 130.518 263.58 128.285 263.529 127.199V126.268C263.529 124.531 261.254 122.649 260.116 121.925L256.549 119.909C253.323 118.048 251.172 116.652 250.5 116.186C245.784 112.96 245.691 108.73 245.691 107.035C245.815 97.9768 253.963 96.1151 257.789 96.1665L260.581 96.1665C270.198 95.8563 272.525 102.382 272.525 104.087V108.73Z" fill="white"/>
<path d="M1142.21 94.4612L1120.03 105.939L1137.25 117.262L1142.21 94.4612Z" fill="#EE2722"/>
<path d="M1134.61 89.3445L1159.43 105.941L1210.46 79.5728H1138.33C1130.89 81.7443 1131.97 87.9486 1134.61 89.3445Z" fill="#EE2722"/>
<path d="M1127.94 122.227L1159.43 105.94L1199.14 132.154H1127.32C1120.03 129.672 1124.99 123.468 1127.94 122.227Z" fill="#EE2722"/>
<path d="M1176.96 117.262L1181.61 94.4612H1211.7L1189.83 105.939L1207.05 117.262H1176.96Z" fill="#EE2722"/>
<path d="M1216.35 117.417H1211.39L1194.17 105.939L1215.89 94.6162H1221.01L1198.98 105.939L1216.35 117.417Z" fill="#EE2722"/>
<path d="M1225.19 117.417H1220.23L1203.01 105.939L1224.73 94.6162H1229.85L1207.82 105.939L1225.19 117.417Z" fill="#EE2722"/>
<path d="M1120.81 154.643H1118.48L1121.12 143.01H1123.44L1122.51 147.508H1122.98L1127.48 143.01H1130.89L1124.68 148.749L1128.25 154.643H1125.15L1122.05 149.37L1120.81 154.643Z" fill="black"/>
<path d="M1130.73 146.268C1132.58 143.16 1136.28 141.85 1139.11 143.166C1141.94 144.483 1142.36 148.124 1140.51 151.232C1138.65 154.339 1135.09 155.907 1132.26 154.59C1129.43 153.273 1128.88 149.376 1130.73 146.268ZM1137.57 144.679C1135.93 144.139 1133.77 145.097 1132.75 147.353C1131.74 149.609 1132.18 152.439 1133.82 152.979C1135.46 153.519 1137.47 152.557 1138.49 150.301C1139.5 148.045 1139.22 145.219 1137.57 144.679Z" fill="black"/>
<path d="M1188.89 146.268C1190.75 143.16 1194.44 141.849 1197.27 143.166C1200.1 144.483 1200.52 148.124 1198.66 151.232C1196.81 154.339 1193.25 155.907 1190.42 154.59C1187.59 153.273 1187.04 149.376 1188.89 146.268ZM1195.73 144.679C1194.09 144.139 1191.92 145.097 1190.91 147.353C1189.89 149.609 1190.33 152.439 1191.98 152.979C1193.62 153.519 1195.63 152.557 1196.65 150.301C1197.66 148.045 1197.38 145.219 1195.73 144.679Z" fill="#EE2722"/>
<path d="M1149.97 143.013C1153.81 144.75 1151.05 148.441 1149.04 148.907C1150.03 149.279 1150.43 152.888 1150.59 154.646H1148.11C1147.86 150.801 1146.86 149.736 1146.4 149.683H1145.16L1144.23 154.646H1141.75L1144.38 143.013H1149.97ZM1146.24 144.873L1145.62 147.82H1147.8C1149.04 147.199 1150.74 145.493 1148.42 144.873H1146.24Z" fill="black"/>
<path d="M1162.22 142.856H1155.09L1152.6 154.645H1159.74L1160.05 152.938H1155.4L1156.17 149.526H1160.51L1160.82 147.82H1156.48L1157.1 144.873H1161.91L1162.22 142.856Z" fill="black"/>
<path d="M1172.46 154.646H1169.82L1169.51 151.079H1165.63L1163.62 154.646H1161.13L1168.11 143.013H1170.6L1172.46 154.646ZM1166.56 149.214H1169.2L1169.05 145.182L1166.56 149.214Z" fill="black"/>
<path d="M1184.56 142.856C1190.76 144.097 1186.73 150.612 1180.99 150.457L1180.06 154.645H1177.58L1180.06 142.856H1184.56ZM1182.07 144.873L1181.45 148.285C1183.94 148.595 1186.73 146.114 1183.63 144.873H1182.07Z" fill="#EE2722"/>
<path d="M1208.29 145.183L1209.06 143.167C1203.01 141.15 1201.15 145.183 1201.15 146.424C1201.15 147.665 1201.31 149.216 1203.94 149.991C1205.98 150.59 1205.19 152.059 1204.56 152.628C1202.86 153.249 1201.05 152.783 1200.38 152.318L1199.45 154.645C1201.8 155.141 1203.43 155.058 1203.94 154.955C1206.74 154.334 1207.67 152.783 1207.82 150.767C1207.98 148.751 1206.12 148.13 1205.19 147.82L1204.56 147.51L1203.94 147.199C1203.79 147.044 1203.01 145.338 1205.03 144.873C1206.64 144.501 1207.87 144.925 1208.29 145.183Z" fill="#EE2722"/>
<path d="M1210.3 144.873L1210.61 142.856H1219.92L1219.46 144.873H1215.89L1213.87 154.645H1211.54L1213.41 144.873H1210.3Z" fill="#EE2722"/>
<path d="M1255.6 89.0339C1262.88 89.0341 1268.78 93.8255 1268.78 99.7361C1268.78 105.647 1262.88 110.439 1255.6 110.439C1248.31 110.439 1242.41 105.647 1242.41 99.7361C1242.41 93.8254 1248.31 89.0339 1255.6 89.0339ZM1255.59 92.7546C1251.91 92.7549 1248.93 95.95 1248.93 99.8904C1248.93 103.831 1251.91 107.025 1255.59 107.025C1259.28 107.025 1262.26 103.831 1262.26 99.8904C1262.26 95.9499 1259.28 92.7546 1255.59 92.7546Z" fill="black"/>
<path d="M1385.57 89.0339C1392 89.0339 1397.21 93.9645 1397.21 100.047C1397.21 106.129 1392 111.059 1385.57 111.059C1379.15 111.059 1373.94 106.129 1373.94 100.047C1373.94 93.9646 1379.15 89.0341 1385.57 89.0339ZM1385.73 93.0652C1382.82 93.0654 1380.46 96.2597 1380.46 100.2C1380.46 104.14 1382.82 107.334 1385.73 107.335C1388.64 107.335 1391 104.14 1391 100.2C1391 96.2596 1388.64 93.0652 1385.73 93.0652Z" fill="black"/>
<path d="M1305.08 114.158C1311.59 114.158 1316.86 118.602 1316.86 124.085C1316.86 129.567 1311.59 134.011 1305.08 134.011C1298.56 134.011 1293.29 129.567 1293.29 124.085C1293.29 118.602 1298.56 114.158 1305.08 114.158ZM1305.23 117.882C1302.57 117.882 1300.42 120.66 1300.42 124.087C1300.42 127.513 1302.57 130.291 1305.23 130.291C1307.89 130.29 1310.04 127.513 1310.04 124.087C1310.04 120.66 1307.89 117.882 1305.23 117.882Z" fill="black"/>
<path d="M1235.59 117.418V113.851H1275.45V117.418H1259.01V131.998H1252.34V117.418H1235.59Z" fill="black"/>
<path d="M1305.38 90.5851H1282.89V94.1526H1290.8C1291.3 104.7 1283.98 108.888 1280.26 109.663L1283.36 112.455C1290.18 110.718 1293.44 106.458 1294.22 104.545C1296.08 109.508 1302.13 111.887 1304.92 112.455L1307.87 109.663C1298.56 107.182 1297.06 98.2888 1297.47 94.1526H1305.38V90.5851Z" fill="black"/>
<path d="M1311.43 89.8096V98.8058H1303.37V102.063H1311.43V113.851H1317.95V89.8096H1311.43Z" fill="black"/>
<path d="M1342.46 89.4978H1335.63V97.8736C1335.63 108.049 1328.6 112.454 1325.08 113.384L1328.34 116.176C1334.05 115.308 1337.85 110.231 1339.04 107.8C1341.28 113.508 1347.11 115.763 1349.75 116.176L1352.85 113.384C1343.91 110.158 1342.2 101.7 1342.46 97.8736V89.4978Z" fill="black"/>
<path d="M1355.33 132.307V89.4978H1361.84V99.89H1368.98V103.457H1361.84V132.307H1355.33Z" fill="black"/>
<path d="M1410.08 89.4978H1403.57V98.0287H1396.9V101.596H1403.57V111.678H1410.08V89.4978Z" fill="black"/>
<path d="M1388.52 119.905H1403.57V114.941H1410.08L1409.93 132.002H1385.73C1383 131.754 1382.22 129.728 1382.16 128.745V114.941H1388.52V119.905ZM1388.52 123.467V128.74H1403.72V123.467H1388.52Z" fill="black"/>
<path d="M1431.18 95.2385H1447V89.6545H1453.67V107.647H1428.08C1425.35 107.328 1424.56 104.722 1424.51 103.459V89.6545H1431.18V95.2385ZM1431.18 98.9612V104.235H1446.84V98.9612H1431.18Z" fill="black"/>
<path d="M1476.47 95.2385H1492.29V89.6545H1498.96V109.043H1473.37C1470.64 108.618 1469.85 106.384 1469.8 104.7V89.6545H1476.47V95.2385ZM1476.55 98.6506V105.785H1492.06V98.6506H1476.55Z" fill="black"/>
<path d="M1435.83 113.075V107.646H1442.19V113.075H1458.63V116.643H1419.39V113.075H1435.83Z" fill="black"/>
<path d="M1425.44 128.584V120.674H1432.11V128.584H1454.6V131.997H1429.47C1426.62 131.997 1425.59 129.722 1425.44 128.584Z" fill="black"/>
<path d="M1464.84 116.798V112.92H1504.08V116.798H1487.64V132.153H1481.12V116.798H1464.84Z" fill="black"/>
<mask id="mask0_10_3906" style="mask-type:alpha" maskUnits="userSpaceOnUse" x="1774" y="43" width="138" height="76">
<path d="M1833.37 118.658H1774.74V43.1204C1837.28 54.0399 1891.69 47.6702 1911.08 43.1204V118.658H1852.29V104.233C1852.04 101.234 1849.78 95.2675 1842.83 95.3916C1835.88 95.5157 1833.63 101.337 1833.37 104.233V118.658Z" fill="url(#paint4_linear_10_3906)"/>
</mask>
<g mask="url(#mask0_10_3906)">
<path d="M1833.37 118.658H1774.74V43.1204C1837.28 54.0399 1891.69 47.6702 1911.08 43.1204V118.658H1852.29V104.233C1852.04 101.234 1849.78 95.2675 1842.83 95.3916C1835.88 95.5157 1833.63 101.337 1833.37 104.233V118.658Z" fill="url(#paint5_linear_10_3906)"/>
<path d="M1780.94 92.2898C1780.94 58.11 1808.65 30.4019 1842.83 30.4019V30.4019C1877.01 30.4019 1904.72 58.11 1904.72 92.2898V152.902H1780.94V92.2898Z" fill="url(#paint6_linear_10_3906)"/>
<path d="M1800.18 97.4093C1800.18 73.7662 1819.34 54.5996 1842.99 54.5996V54.5996C1866.63 54.5996 1885.8 73.7662 1885.8 97.4093V139.336H1800.18V97.4093Z" fill="url(#paint7_linear_10_3906)"/>
<path d="M1811.97 99.7354C1811.97 82.517 1825.92 68.5588 1843.14 68.5588V68.5588C1860.36 68.5588 1874.32 82.5171 1874.32 99.7354V130.269H1811.97V99.7354Z" fill="url(#paint8_linear_10_3906)"/>
<path d="M1821.89 101.441C1821.89 89.6199 1831.48 80.0366 1843.3 80.0366V80.0366C1855.12 80.0366 1864.7 89.6199 1864.7 101.441V122.405H1821.89V101.441Z" fill="url(#paint9_linear_10_3906)"/>
<path d="M1828.41 104.077C1828.41 95.7673 1835.14 89.0312 1843.45 89.0312V89.0312C1851.76 89.0312 1858.5 95.7673 1858.5 104.077V118.812H1828.41V104.077Z" fill="url(#paint10_linear_10_3906)"/>
</g>
<path d="M1778 142.544V137.735H1780.17V142.699L1784.2 148.128L1782.5 149.368L1779.08 144.715L1775.52 149.524L1773.81 147.972L1778 142.544Z" fill="black"/>
<path d="M1797.23 136.496C1799.89 136.496 1802.19 137.803 1802.19 139.981C1802.19 142.014 1800.33 143.321 1797.23 143.321C1794.58 143.321 1792.42 142.304 1792.27 139.981C1792.27 138.137 1794.28 136.496 1797.23 136.496ZM1797.25 138.166C1795.5 138.166 1794.3 138.986 1794.3 139.908C1794.39 141.07 1795.67 141.578 1797.25 141.578C1799.09 141.578 1800.19 140.924 1800.19 139.908C1800.19 138.819 1798.82 138.166 1797.25 138.166Z" fill="black"/>
<path d="M1810.57 137.583C1813.05 137.583 1815.07 139.597 1815.07 142.081C1815.07 144.565 1813.05 146.579 1810.57 146.579C1808.09 146.579 1806.07 144.565 1806.07 142.081C1806.07 139.597 1808.09 137.583 1810.57 137.583ZM1810.57 139.598C1809.11 139.598 1808.09 140.709 1808.09 142.08C1808.09 143.451 1809.11 144.562 1810.57 144.562C1812.03 144.561 1813.05 143.45 1813.05 142.08C1813.05 140.71 1812.03 139.598 1810.57 139.598Z" fill="black"/>
<path d="M1824.84 139.134V137.428H1832.44C1832.91 144.098 1827.63 145.338 1824.84 145.649V143.632C1829.03 143.322 1830.48 140.323 1830.42 139.134H1824.84Z" fill="black"/>
<rect x="1835.85" y="136.806" width="2.1715" height="8.68602" fill="black"/>
<path d="M1848.11 140.994V137.116H1873.23V140.994H1864.08C1865.32 145.833 1871.94 147.664 1875.09 147.974L1872.92 152.007C1865.85 151.262 1861.7 146.94 1860.67 144.872C1859.06 149.711 1851.93 151.851 1848.57 152.317L1846.55 147.974C1853.63 147.726 1856.74 143.217 1857.41 140.994H1848.11Z" fill="black"/>
<path d="M1860.67 161.623C1866.49 161.623 1871.22 165.651 1871.22 170.619C1871.22 175.587 1866.49 179.615 1860.67 179.615C1854.84 179.615 1850.12 175.587 1850.12 170.619C1850.12 165.651 1854.84 161.623 1860.67 161.623ZM1860.67 165.657C1857.76 165.657 1855.4 167.879 1855.4 170.62C1855.4 173.361 1857.76 175.584 1860.67 175.584C1863.58 175.584 1865.94 173.361 1865.94 170.62C1865.94 167.879 1863.58 165.657 1860.67 165.657Z" fill="black"/>
<path d="M2821.71 124.243V116.488H2838V141.615C2826.46 144.469 2817.68 143.425 2814.74 142.391C2805.58 139.599 2804.65 129.827 2804.65 124.243V109.353C2805.02 93.9663 2816.18 91.1537 2821.71 91.6707C2836.36 91.1744 2838.67 102.218 2838 107.802H2827.3C2827.3 105.63 2827.76 99.4261 2821.4 99.1158C2816.32 98.8677 2815.04 106.251 2815.04 109.973V124.243C2814.55 137.769 2823.01 137.014 2827.3 134.946V124.243H2821.71Z" fill="white"/>
<path d="M2891.82 142.391H2881.28V92.4463H2898.8L2906.56 126.415L2915.09 92.4463H2931.84V142.391H2921.29V104.079L2911.52 142.391H2901.13L2891.82 104.079V142.391Z" fill="white"/>
<path d="M2965.81 92.7551C2976.51 92.7551 2978.27 102.113 2977.91 107.18C2978.4 119.092 2970.05 122.174 2965.81 122.226H2956.66V142.39H2946.11V92.7551H2965.81ZM2956.5 100.512V114.317H2963.02C2964.62 114.11 2967.73 112.269 2967.36 106.561C2967.41 104.699 2966.62 100.884 2963.02 100.512H2956.5Z" fill="white"/>
<path d="M3004.28 91.5154C3021.65 91.2053 3022.74 103.304 3022.74 110.129V124.089C3022.73 142.546 3011.26 143.322 3004.28 143.322C2989.7 143.322 2987.68 131.534 2987.68 124.089V110.129C2987.68 94.1526 2998.07 91.6261 3004.28 91.5154ZM3011.72 109.973C3011.97 100.171 3007.48 98.6506 3005.21 99.116C2999.62 98.744 2998.54 106.199 2998.69 109.973V126.26C2998.69 134.449 3003.04 135.979 3005.21 135.72C3010.17 136.093 3011.62 129.569 3011.72 126.26V109.973Z" fill="white"/>
<defs>
<linearGradient id="paint0_linear_10_3906" x1="3050.03" y1="103.924" x2="2863.9" y2="103.924" gradientUnits="userSpaceOnUse">
<stop stop-color="#A08225"/>
<stop offset="1" stop-color="#CAB171"/>
</linearGradient>
<linearGradient id="paint1_linear_10_3906" x1="2851.81" y1="103.614" x2="2780.46" y2="103.614" gradientUnits="userSpaceOnUse">
<stop stop-color="#CAB171"/>
<stop offset="1" stop-color="#A08225"/>
</linearGradient>
<linearGradient id="paint2_linear_10_3906" x1="2220.19" y1="73.993" x2="2283.59" y2="137.435" gradientUnits="userSpaceOnUse">
<stop stop-color="#F6AB00"/>
<stop offset="1" stop-color="#FFD900"/>
</linearGradient>
<linearGradient id="paint3_linear_10_3906" x1="2264.95" y1="183.55" x2="2264.95" y2="55.3451" gradientUnits="userSpaceOnUse">
<stop stop-color="#B60005"/>
<stop offset="1" stop-color="#DF0615"/>
</linearGradient>
<linearGradient id="paint4_linear_10_3906" x1="1842.91" y1="43.1204" x2="1842.91" y2="118.658" gradientUnits="userSpaceOnUse">
<stop stop-color="#173089"/>
<stop offset="1" stop-color="#E6373C"/>
</linearGradient>
<linearGradient id="paint5_linear_10_3906" x1="1842.91" y1="35.5201" x2="1842.91" y2="118.813" gradientUnits="userSpaceOnUse">
<stop stop-color="#173089"/>
<stop offset="1" stop-color="#E63B40"/>
</linearGradient>
<linearGradient id="paint6_linear_10_3906" x1="1842.83" y1="47.1535" x2="1842.83" y2="118.348" gradientUnits="userSpaceOnUse">
<stop stop-color="#173089"/>
<stop offset="1" stop-color="#E63B40"/>
</linearGradient>
<linearGradient id="paint7_linear_10_3906" x1="1842.99" y1="54.5996" x2="1842.99" y2="117.573" gradientUnits="userSpaceOnUse">
<stop stop-color="#173089"/>
<stop offset="1" stop-color="#E6373C"/>
</linearGradient>
<linearGradient id="paint8_linear_10_3906" x1="1843.14" y1="68.5588" x2="1843.14" y2="118.193" gradientUnits="userSpaceOnUse">
<stop stop-color="#173089"/>
<stop offset="1" stop-color="#E6373C"/>
</linearGradient>
<linearGradient id="paint9_linear_10_3906" x1="1843.3" y1="80.0366" x2="1843.3" y2="119.124" gradientUnits="userSpaceOnUse">
<stop stop-color="#173089"/>
<stop offset="1" stop-color="#E6373C"/>
</linearGradient>
<linearGradient id="paint10_linear_10_3906" x1="1843.45" y1="89.0312" x2="1843.45" y2="118.812" gradientUnits="userSpaceOnUse">
<stop stop-color="#173089"/>
<stop offset="1" stop-color="#E6373C"/>
</linearGradient>
<clipPath id="clip0_10_3906">
<rect width="364.392" height="98.9063" fill="white" transform="translate(590.196 62.0286)"/>
</clipPath>
<clipPath id="clip1_10_3906">
<rect width="356.47" height="160.182" fill="white" transform="translate(2201.04 23.3684)"/>
</clipPath>
</defs>
</svg>
